<svg width="157" height="106" viewBox="0 0 157 106" fill="none" xmlns="http://www.w3.org/2000/svg">
<path d="M33.7797 72.1268H34.1021V63.5069H33.7797V72.1268Z" fill="#B1B1DE"/>
<path d="M30.6445 75.1506H37.2354V69.1009H30.6445V75.1506Z" fill="#B1B1DE"/>
<path d="M29.0386 104.794H38.8428L38.8428 71.6202H29.0386L29.0386 104.794Z" fill="#B1B1DE"/>
<path d="M37.9577 72.3145H36.6724V73.5236H37.9577V72.3145Z" fill="#FBF3FF"/>
<path d="M35.8151 72.3145H34.5298V73.5236H35.8151V72.3145Z" fill="#FBF3FF"/>
<path d="M33.6745 72.3145H32.3892V73.5236H33.6745V72.3145Z" fill="#FBF3FF"/>
<path d="M31.5314 72.3145H30.2461V73.5236H31.5314V72.3145Z" fill="#FBF3FF"/>
<path d="M37.9577 74.8489H36.6724V76.058H37.9577V74.8489Z" fill="#FBF3FF"/>
<path d="M35.8151 74.8489H34.5298V76.058H35.8151V74.8489Z" fill="#FBF3FF"/>
<path d="M33.6745 74.8489H32.3892V76.058H33.6745V74.8489Z" fill="#FBF3FF"/>
<path d="M31.5314 74.8489H30.2461V76.058H31.5314V74.8489Z" fill="#FBF3FF"/>
<path d="M37.9577 77.381H36.6724V78.5901H37.9577V77.381Z" fill="#FBF3FF"/>
<path d="M35.8151 77.381H34.5298V78.5901H35.8151V77.381Z" fill="#FBF3FF"/>
<path d="M33.6745 77.381H32.3892V78.5901H33.6745V77.381Z" fill="#FBF3FF"/>
<path d="M31.5314 77.381H30.2461V78.5901H31.5314V77.381Z" fill="#FBF3FF"/>
<path d="M37.9577 79.9154H36.6724V81.1245H37.9577V79.9154Z" fill="#FBF3FF"/>
<path d="M35.8151 79.9154H34.5298V81.1245H35.8151V79.9154Z" fill="#FBF3FF"/>
<path d="M33.6745 79.9154H32.3892V81.1245H33.6745V79.9154Z" fill="#FBF3FF"/>
<path d="M31.5314 79.9154H30.2461V81.1245H31.5314V79.9154Z" fill="#FBF3FF"/>
<path d="M37.9577 82.4475H36.6724V83.6566H37.9577V82.4475Z" fill="#FBF3FF"/>
<path d="M35.8151 82.4475H34.5298V83.6566H35.8151V82.4475Z" fill="#FBF3FF"/>
<path d="M33.6745 82.4475H32.3892V83.6566H33.6745V82.4475Z" fill="#FBF3FF"/>
<path d="M31.5314 82.4475H30.2461V83.6566H31.5314V82.4475Z" fill="#FBF3FF"/>
<path d="M37.9577 84.9818H36.6724V86.1909H37.9577V84.9818Z" fill="#FBF3FF"/>
<path d="M35.8151 84.9818H34.5298V86.1909H35.8151V84.9818Z" fill="#FBF3FF"/>
<path d="M33.6745 84.9818H32.3892V86.1909H33.6745V84.9818Z" fill="#FBF3FF"/>
<path d="M31.5314 84.9818H30.2461V86.1909H31.5314V84.9818Z" fill="#FBF3FF"/>
<path d="M37.9577 87.5142H36.6724V88.7233H37.9577V87.5142Z" fill="#FBF3FF"/>
<path d="M35.8151 87.5142H34.5298V88.7233H35.8151V87.5142Z" fill="#FBF3FF"/>
<path d="M33.6745 87.5142H32.3892V88.7233H33.6745V87.5142Z" fill="#FBF3FF"/>
<path d="M31.5314 87.5142H30.2461V88.7233H31.5314V87.5142Z" fill="#FBF3FF"/>
<path d="M37.9577 90.0482H36.6724V91.2573H37.9577V90.0482Z" fill="#FBF3FF"/>
<path d="M35.8151 90.0482H34.5298V91.2573H35.8151V90.0482Z" fill="#FBF3FF"/>
<path d="M33.6745 90.0482H32.3892V91.2573H33.6745V90.0482Z" fill="#FBF3FF"/>
<path d="M31.5314 90.0482H30.2461V91.2573H31.5314V90.0482Z" fill="#FBF3FF"/>
<path d="M37.9577 92.5804H36.6724V93.7895H37.9577V92.5804Z" fill="#FBF3FF"/>
<path d="M35.8151 92.5804H34.5298V93.7895H35.8151V92.5804Z" fill="#FBF3FF"/>
<path d="M33.6745 92.5804H32.3892V93.7895H33.6745V92.5804Z" fill="#FBF3FF"/>
<path d="M31.5314 92.5804H30.2461V93.7895H31.5314V92.5804Z" fill="#FBF3FF"/>
<path d="M37.9577 95.1144H36.6724V96.3235H37.9577V95.1144Z" fill="#FBF3FF"/>
<path d="M35.8151 95.1144H34.5298V96.3235H35.8151V95.1144Z" fill="#FBF3FF"/>
<path d="M33.6745 95.1144H32.3892V96.3235H33.6745V95.1144Z" fill="#FBF3FF"/>
<path d="M31.5314 95.1144H30.2461V96.3235H31.5314V95.1144Z" fill="#FBF3FF"/>
<path d="M37.9577 97.647H36.6724V98.856H37.9577V97.647Z" fill="#FBF3FF"/>
<path d="M35.8151 97.647H34.5298V98.856H35.8151V97.647Z" fill="#FBF3FF"/>
<path d="M33.6745 97.647H32.3892V98.856H33.6745V97.647Z" fill="#FBF3FF"/>
<path d="M31.5314 97.647H30.2461V98.856H31.5314V97.647Z" fill="#FBF3FF"/>
<path d="M37.9577 100.181H36.6724V101.39H37.9577V100.181Z" fill="#FBF3FF"/>
<path d="M35.8151 100.181H34.5298V101.39H35.8151V100.181Z" fill="#FBF3FF"/>
<path d="M33.6745 100.181H32.3892V101.39H33.6745V100.181Z" fill="#FBF3FF"/>
<path d="M31.5314 100.181H30.2461V101.39H31.5314V100.181Z" fill="#FBF3FF"/>
<path d="M37.9577 102.713H36.6724V103.922H37.9577V102.713Z" fill="#FBF3FF"/>
<path d="M35.8151 102.713H34.5298V103.922H35.8151V102.713Z" fill="#FBF3FF"/>
<path d="M33.6745 102.713H32.3892V103.922H33.6745V102.713Z" fill="#FBF3FF"/>
<path d="M31.5314 102.713H30.2461V103.922H31.5314V102.713Z" fill="#FBF3FF"/>
<path d="M29.5991 104.606H18.8932L18.8932 63.8043C18.8932 62.5443 19.141 61.2966 19.6225 60.1325C20.104 58.9684 20.8097 57.9107 21.6993 57.0197C22.589 56.1288 23.6452 55.422 24.8075 54.9398C25.9699 54.4576 27.2158 54.2095 28.4739 54.2095H29.5991L29.5991 104.606Z" fill="#FBF3FF"/>
<path d="M28.6365 60.6012H27.189V65.6845H28.6365V60.6012Z" fill="#D6D6ED"/>
<path d="M26.7337 60.6012H25.2861V65.6845H26.7337V60.6012Z" fill="#D6D6ED"/>
<path d="M24.8309 60.6012H23.3833V65.6845H24.8309V60.6012Z" fill="#D6D6ED"/>
<path d="M22.9304 60.6012H21.4829V65.6845H22.9304V60.6012Z" fill="#D6D6ED"/>
<path d="M28.6365 66.9633H27.189V72.0466H28.6365V66.9633Z" fill="#D6D6ED"/>
<path d="M26.7337 66.9633H25.2861V72.0466H26.7337V66.9633Z" fill="#D6D6ED"/>
<path d="M24.8309 66.9633H23.3833V72.0466H24.8309V66.9633Z" fill="#D6D6ED"/>
<path d="M22.9304 66.9633H21.4829V72.0466H22.9304V66.9633Z" fill="#D6D6ED"/>
<path d="M28.6365 73.3254H27.189V78.4088H28.6365V73.3254Z" fill="#D6D6ED"/>
<path d="M26.7337 73.3254H25.2861V78.4088H26.7337V73.3254Z" fill="#D6D6ED"/>
<path d="M24.8309 73.3254H23.3833V78.4088H24.8309V73.3254Z" fill="#D6D6ED"/>
<path d="M22.9304 73.3254H21.4829V78.4088H22.9304V73.3254Z" fill="#D6D6ED"/>
<path d="M28.6365 79.6875H27.189V84.7709H28.6365V79.6875Z" fill="#D6D6ED"/>
<path d="M26.7337 79.6875H25.2861V84.7709H26.7337V79.6875Z" fill="#D6D6ED"/>
<path d="M24.8309 79.6875H23.3833V84.7709H24.8309V79.6875Z" fill="#D6D6ED"/>
<path d="M22.9304 79.6875H21.4829V84.7709H22.9304V79.6875Z" fill="#D6D6ED"/>
<path d="M28.6365 86.0496H27.189V91.1329H28.6365V86.0496Z" fill="#D6D6ED"/>
<path d="M26.7337 86.0496H25.2861V91.1329H26.7337V86.0496Z" fill="#D6D6ED"/>
<path d="M24.8309 86.0496H23.3833V91.1329H24.8309V86.0496Z" fill="#D6D6ED"/>
<path d="M22.9304 86.0496H21.4829V91.1329H22.9304V86.0496Z" fill="#D6D6ED"/>
<path d="M28.6365 92.4116H27.189V97.495H28.6365V92.4116Z" fill="#D6D6ED"/>
<path d="M26.7337 92.4116H25.2861V97.495H26.7337V92.4116Z" fill="#D6D6ED"/>
<path d="M24.8309 92.4116H23.3833V97.495H24.8309V92.4116Z" fill="#D6D6ED"/>
<path d="M22.9304 92.4116H21.4829V97.495H22.9304V92.4116Z" fill="#D6D6ED"/>
<path d="M28.6365 98.7736H27.189V103.855H28.6365V98.7736Z" fill="#D6D6ED"/>
<path d="M26.7337 98.7736H25.2861V103.855H26.7337V98.7736Z" fill="#D6D6ED"/>
<path d="M24.8309 98.7736H23.3833V103.855H24.8309V98.7736Z" fill="#D6D6ED"/>
<path d="M22.9304 98.7736H21.4829V103.855H22.9304V98.7736Z" fill="#D6D6ED"/>
<path d="M11.4132 79.924H17.4077V74.849H11.4132V79.924Z" fill="#B1B1DE"/>
<path d="M9.94902 104.794H18.8682L18.8682 76.9631H9.94902L9.94902 104.794Z" fill="#B1B1DE"/>
<path d="M18.063 77.5435H16.8936V78.5584H18.063V77.5435Z" fill="#FBF3FF"/>
<path d="M16.1142 77.5435H14.9448V78.5584H16.1142V77.5435Z" fill="#FBF3FF"/>
<path d="M14.165 77.5435H12.9956V78.5584H14.165V77.5435Z" fill="#FBF3FF"/>
<path d="M12.2182 77.5435H11.0488V78.5584H12.2182V77.5435Z" fill="#FBF3FF"/>
<path d="M18.063 79.6704H16.8936V80.6854H18.063V79.6704Z" fill="#FBF3FF"/>
<path d="M16.1142 79.6704H14.9448V80.6854H16.1142V79.6704Z" fill="#FBF3FF"/>
<path d="M14.165 79.6704H12.9956V80.6854H14.165V79.6704Z" fill="#FBF3FF"/>
<path d="M12.2182 79.6704H11.0488V80.6854H12.2182V79.6704Z" fill="#FBF3FF"/>
<path d="M18.063 81.7954H16.8936V82.8104H18.063V81.7954Z" fill="#FBF3FF"/>
<path d="M16.1142 81.7954H14.9448V82.8104H16.1142V81.7954Z" fill="#FBF3FF"/>
<path d="M14.165 81.7954H12.9956V82.8104H14.165V81.7954Z" fill="#FBF3FF"/>
<path d="M12.2182 81.7954H11.0488V82.8104H12.2182V81.7954Z" fill="#FBF3FF"/>
<path d="M18.063 83.9205H16.8936V84.9355H18.063V83.9205Z" fill="#FBF3FF"/>
<path d="M16.1142 83.9205H14.9448V84.9355H16.1142V83.9205Z" fill="#FBF3FF"/>
<path d="M14.165 83.9205H12.9956V84.9355H14.165V83.9205Z" fill="#FBF3FF"/>
<path d="M12.2182 83.9205H11.0488V84.9355H12.2182V83.9205Z" fill="#FBF3FF"/>
<path d="M18.063 86.0452H16.8936V87.0601H18.063V86.0452Z" fill="#FBF3FF"/>
<path d="M16.1142 86.0452H14.9448V87.0601H16.1142V86.0452Z" fill="#FBF3FF"/>
<path d="M14.165 86.0452H12.9956V87.0601H14.165V86.0452Z" fill="#FBF3FF"/>
<path d="M12.2182 86.0452H11.0488V87.0601H12.2182V86.0452Z" fill="#FBF3FF"/>
<path d="M18.063 88.1703H16.8936V89.1853H18.063V88.1703Z" fill="#FBF3FF"/>
<path d="M16.1142 88.1703H14.9448V89.1853H16.1142V88.1703Z" fill="#FBF3FF"/>
<path d="M14.165 88.1703H12.9956V89.1853H14.165V88.1703Z" fill="#FBF3FF"/>
<path d="M12.2182 88.1703H11.0488V89.1853H12.2182V88.1703Z" fill="#FBF3FF"/>
<path d="M18.063 90.2972H16.8936V91.3123H18.063V90.2972Z" fill="#FBF3FF"/>
<path d="M16.1142 90.2972H14.9448V91.3123H16.1142V90.2972Z" fill="#FBF3FF"/>
<path d="M14.165 90.2972H12.9956V91.3123H14.165V90.2972Z" fill="#FBF3FF"/>
<path d="M12.2182 90.2972H11.0488V91.3123H12.2182V90.2972Z" fill="#FBF3FF"/>
<path d="M18.063 92.4224H16.8936V93.4373H18.063V92.4224Z" fill="#FBF3FF"/>
<path d="M16.1142 92.4224H14.9448V93.4373H16.1142V92.4224Z" fill="#FBF3FF"/>
<path d="M14.165 92.4224H12.9956V93.4373H14.165V92.4224Z" fill="#FBF3FF"/>
<path d="M12.2182 92.4224H11.0488V93.4373H12.2182V92.4224Z" fill="#FBF3FF"/>
<path d="M18.063 94.547H16.8936V95.5619H18.063V94.547Z" fill="#FBF3FF"/>
<path d="M16.1142 94.547H14.9448V95.5619H16.1142V94.547Z" fill="#FBF3FF"/>
<path d="M14.165 94.547H12.9956V95.5619H14.165V94.547Z" fill="#FBF3FF"/>
<path d="M12.2182 94.547H11.0488V95.5619H12.2182V94.547Z" fill="#FBF3FF"/>
<path d="M18.063 96.6719H16.8936V97.6869H18.063V96.6719Z" fill="#FBF3FF"/>
<path d="M16.1142 96.6719H14.9448V97.6869H16.1142V96.6719Z" fill="#FBF3FF"/>
<path d="M14.165 96.6719H12.9956V97.6869H14.165V96.6719Z" fill="#FBF3FF"/>
<path d="M12.2182 96.6719H11.0488V97.6869H12.2182V96.6719Z" fill="#FBF3FF"/>
<path d="M18.063 98.7969H16.8936V99.8118H18.063V98.7969Z" fill="#FBF3FF"/>
<path d="M16.1142 98.7969H14.9448V99.8118H16.1142V98.7969Z" fill="#FBF3FF"/>
<path d="M14.165 98.7969H12.9956V99.8118H14.165V98.7969Z" fill="#FBF3FF"/>
<path d="M12.2182 98.7969H11.0488V99.8118H12.2182V98.7969Z" fill="#FBF3FF"/>
<path d="M18.063 100.924H16.8936V101.939H18.063V100.924Z" fill="#FBF3FF"/>
<path d="M16.1142 100.924H14.9448V101.939H16.1142V100.924Z" fill="#FBF3FF"/>
<path d="M14.165 100.924H12.9956V101.939H14.165V100.924Z" fill="#FBF3FF"/>
<path d="M12.2182 100.924H11.0488V101.939H12.2182V100.924Z" fill="#FBF3FF"/>
<path d="M18.063 103.049H16.8936V104.064H18.063V103.049Z" fill="#FBF3FF"/>
<path d="M16.1142 103.049H14.9448V104.064H16.1142V103.049Z" fill="#FBF3FF"/>
<path d="M14.165 103.049H12.9956V104.064H14.165V103.049Z" fill="#FBF3FF"/>
<path d="M12.2182 103.049H11.0488V104.064H12.2182V103.049Z" fill="#FBF3FF"/>
<path d="M0.315229 104.794H10.4375L10.4375 93.8928H0.315229L0.315229 104.794Z" fill="#8282A8"/>
<path d="M1.78808 93.8907H8.9668V89.0964H1.78808L1.78808 93.8907Z" fill="#8282A8"/>
<path d="M2.29585 89.0966H8.45898V86.5391H2.29585V89.0966Z" fill="#8282A8"/>
<path d="M1.64506 86.5411H9.11035V85.9017H1.64506V86.5411Z" fill="#8282A8"/>
<path d="M2.74925 86.0874H8.00635V84.6863H2.74925V86.0874Z" fill="#8282A8"/>
<path d="M6.48088 85.9589C6.48863 85.9592 6.49635 85.9579 6.50362 85.9552C6.51088 85.9525 6.51755 85.9484 6.52323 85.9431C6.52891 85.9378 6.53348 85.9315 6.5367 85.9244C6.53991 85.9173 6.54171 85.9097 6.54198 85.9019V77.4424C6.53935 77.4283 6.53191 77.4157 6.52094 77.4066C6.50998 77.3975 6.49618 77.3925 6.48193 77.3925C6.46769 77.3925 6.45389 77.3975 6.44293 77.4066C6.43196 77.4157 6.42451 77.4283 6.42188 77.4424V85.9019C6.42242 85.9172 6.42889 85.9317 6.43989 85.9423C6.4509 85.953 6.46559 85.9589 6.48088 85.9589Z" fill="#B1B1DE"/>
<path d="M1.42607 104.794H11.5483L11.5483 93.8928H1.42607L1.42607 104.794Z" fill="#B1B1DE"/>
<path d="M2.89892 93.8907H10.0776V89.0964H2.89892L2.89892 93.8907Z" fill="#B1B1DE"/>
<path d="M3.40669 89.0966H9.56982V86.5391H3.40669V89.0966Z" fill="#B1B1DE"/>
<path d="M2.75541 86.5411H10.2207V85.9017H2.75541V86.5411Z" fill="#B1B1DE"/>
<path d="M3.85959 86.0874H9.1167V84.6863H3.85959V86.0874Z" fill="#B1B1DE"/>
<path d="M8.22943 87.7544H8.95215V86.7922H8.22943V87.7544Z" fill="#8282A8"/>
<path d="M8.22943 89.0165H8.95215V88.0543H8.22943V89.0165Z" fill="#8282A8"/>
<path d="M7.905 86.7922H7.18018V87.7544H7.905V86.7922Z" fill="#8282A8"/>
<path d="M7.905 88.052H7.18018V89.0142H7.905V88.052Z" fill="#8282A8"/>
<path d="M6.85375 86.7922H6.12891V87.7544H6.85375V86.7922Z" fill="#8282A8"/>
<path d="M6.85375 88.052H6.12891V89.0142H6.85375V88.052Z" fill="#8282A8"/>
<path d="M5.8044 86.7922H5.07959V87.7544H5.8044V86.7922Z" fill="#8282A8"/>
<path d="M5.8044 88.052H5.07959V89.0142H5.8044V88.052Z" fill="#8282A8"/>
<path d="M4.0281 87.7544H4.75293V86.7922H4.0281V87.7544Z" fill="#8282A8"/>
<path d="M4.0281 89.0165H4.75293V88.0543H4.0281V89.0165Z" fill="#8282A8"/>
<path d="M8.16433 90.3604H8.88916V89.3982H8.16433V90.3604Z" fill="#8282A8"/>
<path d="M8.16433 91.6201H8.88916V90.6579H8.16433V91.6201Z" fill="#8282A8"/>
<path d="M7.83746 89.3983H7.11475V90.3605H7.83746V89.3983Z" fill="#8282A8"/>
<path d="M7.83746 90.6603H7.11475V91.6225H7.83746V90.6603Z" fill="#8282A8"/>
<path d="M6.78815 89.3983H6.06543V90.3605H6.78815V89.3983Z" fill="#8282A8"/>
<path d="M6.78815 90.6603H6.06543V91.6225H6.78815V90.6603Z" fill="#8282A8"/>
<path d="M5.73883 89.3983H5.01611V90.3605H5.73883V89.3983Z" fill="#8282A8"/>
<path d="M5.73883 90.6603H5.01611V91.6225H5.73883V90.6603Z" fill="#8282A8"/>
<path d="M3.96464 90.3604H4.68945V89.3982H3.96464V90.3604Z" fill="#8282A8"/>
<path d="M3.96464 91.6201H4.68945V90.6579H3.96464V91.6201Z" fill="#8282A8"/>
<path d="M8.16433 92.8528H8.88916V91.8905H8.16433V92.8528Z" fill="#8282A8"/>
<path d="M8.16433 94.1124H8.88916V93.1502H8.16433V94.1124Z" fill="#8282A8"/>
<path d="M7.83746 91.8904H7.11475V92.8526H7.83746V91.8904Z" fill="#8282A8"/>
<path d="M7.83746 93.1521H7.11475V94.1143H7.83746V93.1521Z" fill="#8282A8"/>
<path d="M6.78815 91.8904H6.06543V92.8526H6.78815V91.8904Z" fill="#8282A8"/>
<path d="M6.78815 93.1521H6.06543V94.1143H6.78815V93.1521Z" fill="#8282A8"/>
<path d="M5.73883 91.8904H5.01611V92.8526H5.73883V91.8904Z" fill="#8282A8"/>
<path d="M5.73883 93.1521H5.01611V94.1143H5.73883V93.1521Z" fill="#8282A8"/>
<path d="M3.96464 92.8528H4.68945V91.8905H3.96464V92.8528Z" fill="#8282A8"/>
<path d="M3.96464 94.1124H4.68945V93.1502H3.96464V94.1124Z" fill="#8282A8"/>
<path d="M8.89133 94.5616H8.1665V95.5239H8.89133V94.5616Z" fill="#8282A8"/>
<path d="M8.89133 95.8217H8.1665V96.7839H8.89133V95.8217Z" fill="#8282A8"/>
<path d="M7.83746 94.5616H7.11475V95.5239H7.83746V94.5616Z" fill="#8282A8"/>
<path d="M7.83746 95.8217H7.11475V96.7839H7.83746V95.8217Z" fill="#8282A8"/>
<path d="M6.78815 94.5616H6.06543V95.5239H6.78815V94.5616Z" fill="#8282A8"/>
<path d="M6.78815 95.8217H6.06543V96.7839H6.78815V95.8217Z" fill="#8282A8"/>
<path d="M5.73883 94.5616H5.01611V95.5239H5.73883V94.5616Z" fill="#8282A8"/>
<path d="M5.73883 95.8217H5.01611V96.7839H5.73883V95.8217Z" fill="#8282A8"/>
<path d="M4.68966 94.5616H3.96484V95.5239H4.68966V94.5616Z" fill="#8282A8"/>
<path d="M4.68966 95.8217H3.96484V96.7839H4.68966V95.8217Z" fill="#8282A8"/>
<path d="M8.89133 97.2313H8.1665V98.1935H8.89133V97.2313Z" fill="#8282A8"/>
<path d="M8.89133 98.493H8.1665V99.4552H8.89133V98.493Z" fill="#8282A8"/>
<path d="M7.83746 97.2313H7.11475V98.1935H7.83746V97.2313Z" fill="#8282A8"/>
<path d="M7.83746 98.493H7.11475V99.4552H7.83746V98.493Z" fill="#8282A8"/>
<path d="M6.78815 97.2313H6.06543V98.1935H6.78815V97.2313Z" fill="#8282A8"/>
<path d="M6.78815 98.493H6.06543V99.4552H6.78815V98.493Z" fill="#8282A8"/>
<path d="M5.73883 97.2313H5.01611V98.1935H5.73883V97.2313Z" fill="#8282A8"/>
<path d="M5.73883 98.493H5.01611V99.4552H5.73883V98.493Z" fill="#8282A8"/>
<path d="M4.68966 97.2313H3.96484V98.1935H4.68966V97.2313Z" fill="#8282A8"/>
<path d="M4.68966 98.493H3.96484V99.4552H4.68966V98.493Z" fill="#8282A8"/>
<path d="M8.89133 99.9027H8.1665V100.865H8.89133V99.9027Z" fill="#8282A8"/>
<path d="M8.89133 101.162H8.1665V102.125H8.89133V101.162Z" fill="#8282A8"/>
<path d="M7.83746 99.9027H7.11475V100.865H7.83746V99.9027Z" fill="#8282A8"/>
<path d="M7.83746 101.162H7.11475V102.125H7.83746V101.162Z" fill="#8282A8"/>
<path d="M6.78815 99.9027H6.06543V100.865H6.78815V99.9027Z" fill="#8282A8"/>
<path d="M6.78815 101.162H6.06543V102.125H6.78815V101.162Z" fill="#8282A8"/>
<path d="M5.73883 99.9027H5.01611V100.865H5.73883V99.9027Z" fill="#8282A8"/>
<path d="M5.73883 101.162H5.01611V102.125H5.73883V101.162Z" fill="#8282A8"/>
<path d="M4.68966 99.9027H3.96484V100.865H4.68966V99.9027Z" fill="#8282A8"/>
<path d="M4.68966 101.162H3.96484V102.125H4.68966V101.162Z" fill="#8282A8"/>
<path d="M8.16433 103.534H8.88916V102.572H8.16433V103.534Z" fill="#8282A8"/>
<path d="M8.16433 104.794H8.88916V103.832H8.16433V104.794Z" fill="#8282A8"/>
<path d="M7.83746 102.572H7.11475V103.534H7.83746V102.572Z" fill="#8282A8"/>
<path d="M7.83746 103.834H7.11475V104.796H7.83746V103.834Z" fill="#8282A8"/>
<path d="M6.78815 102.572H6.06543V103.534H6.78815V102.572Z" fill="#8282A8"/>
<path d="M6.78815 103.834H6.06543V104.796H6.78815V103.834Z" fill="#8282A8"/>
<path d="M5.73883 102.572H5.01611V103.534H5.73883V102.572Z" fill="#8282A8"/>
<path d="M5.73883 103.834H5.01611V104.796H5.73883V103.834Z" fill="#8282A8"/>
<path d="M3.96464 103.534H4.68945V102.572H3.96464V103.534Z" fill="#8282A8"/>
<path d="M3.96464 104.794H4.68945V103.832H3.96464V104.794Z" fill="#8282A8"/>
<path d="M141.608 54.8047H141.222V65.444H141.608V54.8047Z" fill="#FBF3FF"/>
<path d="M145.359 61.7111H137.47V69.1767H145.359V61.7111Z" fill="#FBF3FF"/>
<path d="M147.605 64.4563H135.866V105.395H147.605V64.4563Z" fill="#FBF3FF"/>
<path d="M138.467 65.311H136.926V66.805H138.467V65.311Z" fill="#D6D6ED"/>
<path d="M141.03 65.311H139.49V66.805H141.03V65.311Z" fill="#D6D6ED"/>
<path d="M143.595 65.311H142.055V66.805H143.595V65.311Z" fill="#D6D6ED"/>
<path d="M146.159 65.311H144.619V66.805H146.159V65.311Z" fill="#D6D6ED"/>
<path d="M138.467 68.4381H136.926V69.9321H138.467V68.4381Z" fill="#D6D6ED"/>
<path d="M141.03 68.4381H139.49V69.9321H141.03V68.4381Z" fill="#D6D6ED"/>
<path d="M143.595 68.4381H142.055V69.9321H143.595V68.4381Z" fill="#D6D6ED"/>
<path d="M146.159 68.4381H144.619V69.9321H146.159V68.4381Z" fill="#D6D6ED"/>
<path d="M138.467 71.5634H136.926V73.0573H138.467V71.5634Z" fill="#D6D6ED"/>
<path d="M141.03 71.5634H139.49V73.0573H141.03V71.5634Z" fill="#D6D6ED"/>
<path d="M143.595 71.5634H142.055V73.0573H143.595V71.5634Z" fill="#D6D6ED"/>
<path d="M146.159 71.5634H144.619V73.0573H146.159V71.5634Z" fill="#D6D6ED"/>
<path d="M138.467 74.6906H136.926V76.1845H138.467V74.6906Z" fill="#D6D6ED"/>
<path d="M141.03 74.6906H139.49V76.1845H141.03V74.6906Z" fill="#D6D6ED"/>
<path d="M143.595 74.6906H142.055V76.1845H143.595V74.6906Z" fill="#D6D6ED"/>
<path d="M146.159 74.6906H144.619V76.1845H146.159V74.6906Z" fill="#D6D6ED"/>
<path d="M138.467 77.8158H136.926V79.3098H138.467V77.8158Z" fill="#D6D6ED"/>
<path d="M141.03 77.8158H139.49V79.3098H141.03V77.8158Z" fill="#D6D6ED"/>
<path d="M143.595 77.8158H142.055V79.3098H143.595V77.8158Z" fill="#D6D6ED"/>
<path d="M146.159 77.8158H144.619V79.3098H146.159V77.8158Z" fill="#D6D6ED"/>
<path d="M138.467 80.9429H136.926V82.4369H138.467V80.9429Z" fill="#D6D6ED"/>
<path d="M141.03 80.9429H139.49V82.4369H141.03V80.9429Z" fill="#D6D6ED"/>
<path d="M143.595 80.9429H142.055V82.4369H143.595V80.9429Z" fill="#D6D6ED"/>
<path d="M146.159 80.9429H144.619V82.4369H146.159V80.9429Z" fill="#D6D6ED"/>
<path d="M138.467 84.0703H136.926V85.5643H138.467V84.0703Z" fill="#D6D6ED"/>
<path d="M141.03 84.0703H139.49V85.5643H141.03V84.0703Z" fill="#D6D6ED"/>
<path d="M143.595 84.0703H142.055V85.5643H143.595V84.0703Z" fill="#D6D6ED"/>
<path d="M146.159 84.0703H144.619V85.5643H146.159V84.0703Z" fill="#D6D6ED"/>
<path d="M138.467 87.1954H136.926V88.6894H138.467V87.1954Z" fill="#D6D6ED"/>
<path d="M141.03 87.1954H139.49V88.6894H141.03V87.1954Z" fill="#D6D6ED"/>
<path d="M143.595 87.1954H142.055V88.6894H143.595V87.1954Z" fill="#D6D6ED"/>
<path d="M146.159 87.1954H144.619V88.6894H146.159V87.1954Z" fill="#D6D6ED"/>
<path d="M138.467 90.3224H136.926V91.8164H138.467V90.3224Z" fill="#D6D6ED"/>
<path d="M141.03 90.3224H139.49V91.8164H141.03V90.3224Z" fill="#D6D6ED"/>
<path d="M143.595 90.3224H142.055V91.8164H143.595V90.3224Z" fill="#D6D6ED"/>
<path d="M146.159 90.3224H144.619V91.8164H146.159V90.3224Z" fill="#D6D6ED"/>
<path d="M138.467 93.4478H136.926V94.9417H138.467V93.4478Z" fill="#D6D6ED"/>
<path d="M141.03 93.4478H139.49V94.9417H141.03V93.4478Z" fill="#D6D6ED"/>
<path d="M143.595 93.4478H142.055V94.9417H143.595V93.4478Z" fill="#D6D6ED"/>
<path d="M146.159 93.4478H144.619V94.9417H146.159V93.4478Z" fill="#D6D6ED"/>
<path d="M138.467 96.575H136.926V98.069H138.467V96.575Z" fill="#D6D6ED"/>
<path d="M141.03 96.575H139.49V98.069H141.03V96.575Z" fill="#D6D6ED"/>
<path d="M143.595 96.575H142.055V98.069H143.595V96.575Z" fill="#D6D6ED"/>
<path d="M146.159 96.575H144.619V98.069H146.159V96.575Z" fill="#D6D6ED"/>
<path d="M138.467 99.7002H136.926V101.194H138.467V99.7002Z" fill="#D6D6ED"/>
<path d="M141.03 99.7002H139.49V101.194H141.03V99.7002Z" fill="#D6D6ED"/>
<path d="M143.595 99.7002H142.055V101.194H143.595V99.7002Z" fill="#D6D6ED"/>
<path d="M146.159 99.7002H144.619V101.194H146.159V99.7002Z" fill="#D6D6ED"/>
<path d="M138.467 102.827H136.926V104.321H138.467V102.827Z" fill="#D6D6ED"/>
<path d="M141.03 102.827H139.49V104.321H141.03V102.827Z" fill="#D6D6ED"/>
<path d="M143.595 102.827H142.055V104.321H143.595V102.827Z" fill="#D6D6ED"/>
<path d="M146.159 102.827H144.619V104.321H146.159V102.827Z" fill="#D6D6ED"/>
<path d="M157 105.396H146.732V77.4297H148.325C150.626 77.4297 152.832 78.345 154.459 79.9742C156.086 81.6035 157 83.8132 157 86.1172V105.393V105.396Z" fill="#B1B1DE"/>
<path d="M149.398 81.9264H147.915V84.4311H149.398V81.9264Z" fill="#FBF3FF"/>
<path d="M151.349 81.9264H149.866V84.4311H151.349V81.9264Z" fill="#FBF3FF"/>
<path d="M153.298 81.9264H151.814V84.4311H153.298V81.9264Z" fill="#FBF3FF"/>
<path d="M155.249 81.9264H153.766V84.4311H155.249V81.9264Z" fill="#FBF3FF"/>
<path d="M149.398 85.0598H147.915V87.5646H149.398V85.0598Z" fill="#FBF3FF"/>
<path d="M151.349 85.0598H149.866V87.5646H151.349V85.0598Z" fill="#FBF3FF"/>
<path d="M153.298 85.0598H151.814V87.5646H153.298V85.0598Z" fill="#FBF3FF"/>
<path d="M155.249 85.0598H153.766V87.5646H155.249V85.0598Z" fill="#FBF3FF"/>
<path d="M149.398 88.1957H147.915V90.7004H149.398V88.1957Z" fill="#FBF3FF"/>
<path d="M151.349 88.1957H149.866V90.7004H151.349V88.1957Z" fill="#FBF3FF"/>
<path d="M153.298 88.1957H151.814V90.7004H153.298V88.1957Z" fill="#FBF3FF"/>
<path d="M155.249 88.1957H153.766V90.7004H155.249V88.1957Z" fill="#FBF3FF"/>
<path d="M149.398 91.3291H147.915V93.8339H149.398V91.3291Z" fill="#FBF3FF"/>
<path d="M151.349 91.3291H149.866V93.8339H151.349V91.3291Z" fill="#FBF3FF"/>
<path d="M153.298 91.3291H151.814V93.8339H153.298V91.3291Z" fill="#FBF3FF"/>
<path d="M155.249 91.3291H153.766V93.8339H155.249V91.3291Z" fill="#FBF3FF"/>
<path d="M149.398 94.4647H147.915V96.9695H149.398V94.4647Z" fill="#FBF3FF"/>
<path d="M151.349 94.4647H149.866V96.9695H151.349V94.4647Z" fill="#FBF3FF"/>
<path d="M153.298 94.4647H151.814V96.9695H153.298V94.4647Z" fill="#FBF3FF"/>
<path d="M155.249 94.4647H153.766V96.9695H155.249V94.4647Z" fill="#FBF3FF"/>
<path d="M149.398 97.5983H147.915V100.103H149.398V97.5983Z" fill="#FBF3FF"/>
<path d="M151.349 97.5983H149.866V100.103H151.349V97.5983Z" fill="#FBF3FF"/>
<path d="M153.298 97.5983H151.814V100.103H153.298V97.5983Z" fill="#FBF3FF"/>
<path d="M155.249 97.5983H153.766V100.103H155.249V97.5983Z" fill="#FBF3FF"/>
<path d="M149.398 100.732H147.915V103.237H149.398V100.732Z" fill="#FBF3FF"/>
<path d="M151.349 100.732H149.866V103.237H151.349V100.732Z" fill="#FBF3FF"/>
<path d="M153.298 100.732H151.814V103.237H153.298V100.732Z" fill="#FBF3FF"/>
<path d="M155.249 100.732H153.766V103.237H155.249V100.732Z" fill="#FBF3FF"/>
<path d="M121.001 105.396H107.792V64.4164H111.743C114.198 64.4164 116.552 65.3931 118.288 67.1315C120.024 68.87 120.999 71.2278 120.999 73.6863V105.396H121.001Z" fill="#FBF3FF"/>
<path d="M111.218 71.0042H109.309V74.6737H111.218V71.0042Z" fill="#D6D6ED"/>
<path d="M113.727 71.0042H111.818V74.6737H113.727V71.0042Z" fill="#D6D6ED"/>
<path d="M116.237 71.0042H114.328V74.6737H116.237V71.0042Z" fill="#D6D6ED"/>
<path d="M118.746 71.0042H116.837V74.6737H118.746V71.0042Z" fill="#D6D6ED"/>
<path d="M111.218 75.5979H109.309V79.2675H111.218V75.5979Z" fill="#D6D6ED"/>
<path d="M113.727 75.5979H111.818V79.2675H113.727V75.5979Z" fill="#D6D6ED"/>
<path d="M116.237 75.5979H114.328V79.2675H116.237V75.5979Z" fill="#D6D6ED"/>
<path d="M118.746 75.5979H116.837V79.2675H118.746V75.5979Z" fill="#D6D6ED"/>
<path d="M111.218 80.1917H109.309V83.8611H111.218V80.1917Z" fill="#D6D6ED"/>
<path d="M113.727 80.1917H111.818V83.8611H113.727V80.1917Z" fill="#D6D6ED"/>
<path d="M116.237 80.1917H114.328V83.8611H116.237V80.1917Z" fill="#D6D6ED"/>
<path d="M118.746 80.1917H116.837V83.8611H118.746V80.1917Z" fill="#D6D6ED"/>
<path d="M111.218 84.7836H109.309V88.4531H111.218V84.7836Z" fill="#D6D6ED"/>
<path d="M113.727 84.7836H111.818V88.4531H113.727V84.7836Z" fill="#D6D6ED"/>
<path d="M116.237 84.7836H114.328V88.4531H116.237V84.7836Z" fill="#D6D6ED"/>
<path d="M118.746 84.7836H116.837V88.4531H118.746V84.7836Z" fill="#D6D6ED"/>
<path d="M111.218 89.3772H109.309V93.0468H111.218V89.3772Z" fill="#D6D6ED"/>
<path d="M113.727 89.3772H111.818V93.0468H113.727V89.3772Z" fill="#D6D6ED"/>
<path d="M116.237 89.3772H114.328V93.0468H116.237V89.3772Z" fill="#D6D6ED"/>
<path d="M118.746 89.3772H116.837V93.0468H118.746V89.3772Z" fill="#D6D6ED"/>
<path d="M111.218 93.9709H109.309V97.6405H111.218V93.9709Z" fill="#D6D6ED"/>
<path d="M113.727 93.9709H111.818V97.6405H113.727V93.9709Z" fill="#D6D6ED"/>
<path d="M116.237 93.9709H114.328V97.6405H116.237V93.9709Z" fill="#D6D6ED"/>
<path d="M118.746 93.9709H116.837V97.6405H118.746V93.9709Z" fill="#D6D6ED"/>
<path d="M111.218 98.5629H109.309V102.232H111.218V98.5629Z" fill="#D6D6ED"/>
<path d="M113.727 98.5629H111.818V102.232H113.727V98.5629Z" fill="#D6D6ED"/>
<path d="M116.237 98.5629H114.328V102.232H116.237V98.5629Z" fill="#D6D6ED"/>
<path d="M118.746 98.5629H116.837V102.232H118.746V98.5629Z" fill="#D6D6ED"/>
<path d="M121.475 77.8327V58.7802H134.722V77.8327L137.2 79.0101V105.397H118.997V79.0101L121.475 77.8327Z" fill="#8282A8"/>
<path d="M123.477 77.8327V58.7802H136.726V77.8327L139.204 79.0101V105.397H120.999V79.0101L123.477 77.8327Z" fill="#B1B1DE"/>
<path d="M129.979 55.3871V49.1938C129.979 49.1778 129.983 49.162 129.989 49.1473C129.995 49.1325 130.004 49.1192 130.015 49.108C130.027 49.0968 130.04 49.088 130.055 49.0821C130.07 49.0761 130.086 49.0732 130.102 49.0735C130.117 49.0732 130.133 49.0761 130.148 49.0821C130.163 49.088 130.176 49.0968 130.188 49.108C130.199 49.1192 130.208 49.1325 130.214 49.1473C130.221 49.162 130.224 49.1778 130.224 49.1938V55.3871C132.636 55.4504 134.573 57.3643 134.573 59.7213C134.573 62.1163 132.571 64.0577 130.102 64.0577C127.632 64.0577 125.63 62.1163 125.63 59.7213C125.63 57.3664 127.567 55.4525 129.979 55.3871Z" fill="#B1B1DE"/>
<path d="M135.502 60.0673H133.985V63.5553H135.502V60.0673Z" fill="#ECE1EF"/>
<path d="M133.035 60.0673H131.518V63.5553H133.035V60.0673Z" fill="#ECE1EF"/>
<path d="M130.567 60.0673H129.05V63.5553H130.567V60.0673Z" fill="#ECE1EF"/>
<path d="M128.1 60.0673H126.583V63.5553H128.1V60.0673Z" fill="#ECE1EF"/>
<path d="M125.632 60.0673H124.115V63.5553H125.632V60.0673Z" fill="#ECE1EF"/>
<path d="M135.502 64.2515H133.985V67.7395H135.502V64.2515Z" fill="#ECE1EF"/>
<path d="M133.035 64.2515H131.518V67.7395H133.035V64.2515Z" fill="#ECE1EF"/>
<path d="M130.567 64.2515H129.05V67.7395H130.567V64.2515Z" fill="#ECE1EF"/>
<path d="M128.1 64.2515H126.583V67.7395H128.1V64.2515Z" fill="#ECE1EF"/>
<path d="M125.632 64.2515H124.115V67.7395H125.632V64.2515Z" fill="#ECE1EF"/>
<path d="M135.502 68.4362H133.985V71.9242H135.502V68.4362Z" fill="#ECE1EF"/>
<path d="M133.035 68.4362H131.518V71.9242H133.035V68.4362Z" fill="#ECE1EF"/>
<path d="M130.567 68.4362H129.05V71.9242H130.567V68.4362Z" fill="#ECE1EF"/>
<path d="M128.1 68.4362H126.583V71.9242H128.1V68.4362Z" fill="#ECE1EF"/>
<path d="M125.632 68.4362H124.115V71.9242H125.632V68.4362Z" fill="#ECE1EF"/>
<path d="M135.502 72.6184H133.985V76.1065H135.502V72.6184Z" fill="#ECE1EF"/>
<path d="M133.035 72.6184H131.518V76.1065H133.035V72.6184Z" fill="#ECE1EF"/>
<path d="M130.567 72.6184H129.05V76.1065H130.567V72.6184Z" fill="#ECE1EF"/>
<path d="M128.1 72.6184H126.583V76.1065H128.1V72.6184Z" fill="#ECE1EF"/>
<path d="M125.632 72.6184H124.115V76.1065H125.632V72.6184Z" fill="#ECE1EF"/>
<path d="M135.502 76.8029H133.985V80.2909H135.502V76.8029Z" fill="#ECE1EF"/>
<path d="M133.035 76.8029H131.518V80.2909H133.035V76.8029Z" fill="#ECE1EF"/>
<path d="M130.567 76.8029H129.05V80.2909H130.567V76.8029Z" fill="#ECE1EF"/>
<path d="M128.1 76.8029H126.583V80.2909H128.1V76.8029Z" fill="#ECE1EF"/>
<path d="M125.632 76.8029H124.115V80.2909H125.632V76.8029Z" fill="#ECE1EF"/>
<path d="M135.502 80.9872H133.985V84.4752H135.502V80.9872Z" fill="#ECE1EF"/>
<path d="M133.035 80.9872H131.518V84.4752H133.035V80.9872Z" fill="#ECE1EF"/>
<path d="M130.567 80.9872H129.05V84.4752H130.567V80.9872Z" fill="#ECE1EF"/>
<path d="M128.1 80.9872H126.583V84.4752H128.1V80.9872Z" fill="#ECE1EF"/>
<path d="M125.632 80.9872H124.115V84.4752H125.632V80.9872Z" fill="#ECE1EF"/>
<path d="M135.502 85.1716H133.985V88.6597H135.502V85.1716Z" fill="#ECE1EF"/>
<path d="M133.035 85.1716H131.518V88.6597H133.035V85.1716Z" fill="#ECE1EF"/>
<path d="M130.567 85.1716H129.05V88.6597H130.567V85.1716Z" fill="#ECE1EF"/>
<path d="M128.1 85.1716H126.583V88.6597H128.1V85.1716Z" fill="#ECE1EF"/>
<path d="M125.632 85.1716H124.115V88.6597H125.632V85.1716Z" fill="#ECE1EF"/>
<path d="M135.502 89.3539H133.985V92.8419H135.502V89.3539Z" fill="#ECE1EF"/>
<path d="M133.035 89.3539H131.518V92.8419H133.035V89.3539Z" fill="#ECE1EF"/>
<path d="M130.567 89.3539H129.05V92.8419H130.567V89.3539Z" fill="#ECE1EF"/>
<path d="M128.1 89.3539H126.583V92.8419H128.1V89.3539Z" fill="#ECE1EF"/>
<path d="M125.632 89.3539H124.115V92.8419H125.632V89.3539Z" fill="#ECE1EF"/>
<path d="M135.502 93.5385H133.985V97.0286H135.502V93.5385Z" fill="#ECE1EF"/>
<path d="M133.035 93.5385H131.518V97.0286H133.035V93.5385Z" fill="#ECE1EF"/>
<path d="M130.567 93.5385H129.05V97.0286H130.567V93.5385Z" fill="#ECE1EF"/>
<path d="M128.1 93.5385H126.583V97.0286H128.1V93.5385Z" fill="#ECE1EF"/>
<path d="M125.632 93.5385H124.115V97.0286H125.632V93.5385Z" fill="#ECE1EF"/>
<path d="M135.502 97.7229H133.985V101.211H135.502V97.7229Z" fill="#ECE1EF"/>
<path d="M133.035 97.7229H131.518V101.211H133.035V97.7229Z" fill="#ECE1EF"/>
<path d="M130.567 97.7229H129.05V101.211H130.567V97.7229Z" fill="#ECE1EF"/>
<path d="M128.1 97.7229H126.583V101.211H128.1V97.7229Z" fill="#ECE1EF"/>
<path d="M125.632 97.7229H124.115V101.211H125.632V97.7229Z" fill="#ECE1EF"/>
<path d="M135.502 101.907H133.985V105.395H135.502V101.907Z" fill="#ECE1EF"/>
<path d="M133.035 101.907H131.518V105.395H133.035V101.907Z" fill="#ECE1EF"/>
<path d="M130.567 101.907H129.05V105.395H130.567V101.907Z" fill="#ECE1EF"/>
<path d="M128.1 101.907H126.583V105.395H128.1V101.907Z" fill="#ECE1EF"/>
<path d="M125.632 101.907H124.115V105.395H125.632V101.907Z" fill="#ECE1EF"/>
<path d="M102.381 59.7423H102.821V47.5815H102.381V59.7423Z" fill="#B1B1DE"/>
<path d="M98.0912 64.0089H107.109V55.4755H98.0912V64.0089Z" fill="#B1B1DE"/>
<path d="M95.8935 105.826H109.309V59.0334H95.8935V105.826Z" fill="#B1B1DE"/>
<path d="M108.097 60.0082H106.338V61.7152H108.097V60.0082Z" fill="#FBF3FF"/>
<path d="M105.167 60.0082H103.407V61.7152H105.167V60.0082Z" fill="#FBF3FF"/>
<path d="M102.235 60.0082H100.476V61.7152H102.235V60.0082Z" fill="#FBF3FF"/>
<path d="M99.3048 60.0082H97.5454V61.7152H99.3048V60.0082Z" fill="#FBF3FF"/>
<path d="M108.097 63.5829H106.338V65.29H108.097V63.5829Z" fill="#FBF3FF"/>
<path d="M105.167 63.5829H103.407V65.29H105.167V63.5829Z" fill="#FBF3FF"/>
<path d="M102.235 63.5829H100.476V65.29H102.235V63.5829Z" fill="#FBF3FF"/>
<path d="M99.3048 63.5829H97.5454V65.29H99.3048V63.5829Z" fill="#FBF3FF"/>
<path d="M108.097 67.1553H106.338V68.8624H108.097V67.1553Z" fill="#FBF3FF"/>
<path d="M105.167 67.1553H103.407V68.8624H105.167V67.1553Z" fill="#FBF3FF"/>
<path d="M102.235 67.1553H100.476V68.8624H102.235V67.1553Z" fill="#FBF3FF"/>
<path d="M99.3048 67.1553H97.5454V68.8624H99.3048V67.1553Z" fill="#FBF3FF"/>
<path d="M108.097 70.7299H106.338V72.437H108.097V70.7299Z" fill="#FBF3FF"/>
<path d="M105.167 70.7299H103.407V72.437H105.167V70.7299Z" fill="#FBF3FF"/>
<path d="M102.235 70.7299H100.476V72.437H102.235V70.7299Z" fill="#FBF3FF"/>
<path d="M99.3048 70.7299H97.5454V72.437H99.3048V70.7299Z" fill="#FBF3FF"/>
<path d="M108.097 74.3022H106.338V76.0093H108.097V74.3022Z" fill="#FBF3FF"/>
<path d="M105.167 74.3022H103.407V76.0093H105.167V74.3022Z" fill="#FBF3FF"/>
<path d="M102.235 74.3022H100.476V76.0093H102.235V74.3022Z" fill="#FBF3FF"/>
<path d="M99.3048 74.3022H97.5454V76.0093H99.3048V74.3022Z" fill="#FBF3FF"/>
<path d="M108.097 77.877H106.338V79.5841H108.097V77.877Z" fill="#FBF3FF"/>
<path d="M105.167 77.877H103.407V79.5841H105.167V77.877Z" fill="#FBF3FF"/>
<path d="M102.235 77.877H100.476V79.5841H102.235V77.877Z" fill="#FBF3FF"/>
<path d="M99.3048 77.877H97.5454V79.5841H99.3048V77.877Z" fill="#FBF3FF"/>
<path d="M108.097 81.4493H106.338V83.1564H108.097V81.4493Z" fill="#FBF3FF"/>
<path d="M105.167 81.4493H103.407V83.1564H105.167V81.4493Z" fill="#FBF3FF"/>
<path d="M102.235 81.4493H100.476V83.1564H102.235V81.4493Z" fill="#FBF3FF"/>
<path d="M99.3048 81.4493H97.5454V83.1564H99.3048V81.4493Z" fill="#FBF3FF"/>
<path d="M108.097 85.022H106.338V86.7291H108.097V85.022Z" fill="#FBF3FF"/>
<path d="M105.167 85.022H103.407V86.7291H105.167V85.022Z" fill="#FBF3FF"/>
<path d="M102.235 85.022H100.476V86.7291H102.235V85.022Z" fill="#FBF3FF"/>
<path d="M99.3048 85.022H97.5454V86.7291H99.3048V85.022Z" fill="#FBF3FF"/>
<path d="M108.097 88.5964H106.338V90.3035H108.097V88.5964Z" fill="#FBF3FF"/>
<path d="M105.167 88.5964H103.407V90.3035H105.167V88.5964Z" fill="#FBF3FF"/>
<path d="M102.235 88.5964H100.476V90.3035H102.235V88.5964Z" fill="#FBF3FF"/>
<path d="M99.3048 88.5964H97.5454V90.3035H99.3048V88.5964Z" fill="#FBF3FF"/>
<path d="M108.097 92.1692H106.338V93.8763H108.097V92.1692Z" fill="#FBF3FF"/>
<path d="M105.167 92.1692H103.407V93.8763H105.167V92.1692Z" fill="#FBF3FF"/>
<path d="M102.235 92.1692H100.476V93.8763H102.235V92.1692Z" fill="#FBF3FF"/>
<path d="M99.3048 92.1692H97.5454V93.8763H99.3048V92.1692Z" fill="#FBF3FF"/>
<path d="M108.097 95.7435H106.338V97.4506H108.097V95.7435Z" fill="#FBF3FF"/>
<path d="M105.167 95.7435H103.407V97.4506H105.167V95.7435Z" fill="#FBF3FF"/>
<path d="M102.235 95.7435H100.476V97.4506H102.235V95.7435Z" fill="#FBF3FF"/>
<path d="M99.3048 95.7435H97.5454V97.4506H99.3048V95.7435Z" fill="#FBF3FF"/>
<path d="M108.097 99.316H106.338V101.023H108.097V99.316Z" fill="#FBF3FF"/>
<path d="M105.167 99.316H103.407V101.023H105.167V99.316Z" fill="#FBF3FF"/>
<path d="M102.235 99.316H100.476V101.023H102.235V99.316Z" fill="#FBF3FF"/>
<path d="M99.3048 99.316H97.5454V101.023H99.3048V99.316Z" fill="#FBF3FF"/>
<path d="M108.097 102.888H106.338V104.595H108.097V102.888Z" fill="#FBF3FF"/>
<path d="M105.167 102.888H103.407V104.595H105.167V102.888Z" fill="#FBF3FF"/>
<path d="M102.235 102.888H100.476V104.595H102.235V102.888Z" fill="#FBF3FF"/>
<path d="M99.3048 102.888H97.5454V104.595H99.3048V102.888Z" fill="#FBF3FF"/>
<path d="M37.5469 92.0888C37.8482 90.8755 38.6362 90.0082 39.557 90.0082V90.2699C38.5204 90.2699 37.6775 91.5781 37.6775 93.184V102.819H37.4163V93.184C37.4163 91.5781 36.5734 90.2699 35.5347 90.2699V90.0082C36.4576 90.0082 37.2435 90.8755 37.5469 92.0888Z" fill="#333343"/>
<path d="M39.0243 90.0208C38.9995 90.2113 39.0349 90.4048 39.1255 90.5742C39.2161 90.7435 39.3574 90.8802 39.5295 90.9651C39.7016 91.05 39.8959 91.0787 40.0852 91.0474C40.2745 91.016 40.4492 90.9261 40.5849 90.7902C40.7205 90.6544 40.8103 90.4794 40.8416 90.2898C40.8729 90.1003 40.8442 89.9056 40.7595 89.7333C40.6747 89.5609 40.5382 89.4194 40.3691 89.3287C40.2 89.2379 40.0068 89.2025 39.8166 89.2273C39.6156 89.2535 39.429 89.3456 39.2857 89.4891C39.1424 89.6326 39.0505 89.8195 39.0243 90.0208Z" fill="#FF7685"/>
<path d="M39.4921 89.3329C39.3955 89.5075 39.3583 89.7088 39.386 89.9065C39.4136 90.1041 39.5048 90.2874 39.6456 90.4286C39.7864 90.5699 39.9692 90.6614 40.1666 90.6895C40.3639 90.7176 40.5649 90.6806 40.7395 90.5842C40.6705 90.709 40.5735 90.8159 40.4562 90.8967C40.3389 90.9774 40.2044 91.0298 40.0634 91.0496C39.9224 91.0694 39.7788 91.0561 39.6438 91.0108C39.5088 90.9655 39.3862 90.8894 39.2856 90.7885C39.185 90.6876 39.1092 90.5647 39.0642 90.4294C39.0192 90.2942 39.0062 90.1503 39.0262 90.0091C39.0462 89.868 39.0987 89.7334 39.1796 89.616C39.2604 89.4987 39.3674 89.4017 39.4921 89.3329Z" fill="#E86477"/>
<path d="M34.2367 90.0208C34.2119 90.2113 34.2473 90.4048 34.3379 90.5742C34.4285 90.7435 34.5698 90.8802 34.7419 90.9651C34.914 91.05 35.1084 91.0787 35.2976 91.0474C35.4869 91.016 35.6616 90.9261 35.7973 90.7902C35.933 90.6544 36.0227 90.4794 36.0541 90.2898C36.0854 90.1003 36.0566 89.9056 35.9719 89.7333C35.8872 89.5609 35.7507 89.4194 35.5815 89.3287C35.4124 89.2379 35.2192 89.2025 35.029 89.2273C34.828 89.2535 34.6414 89.3456 34.4981 89.4891C34.3548 89.6326 34.2629 89.8195 34.2367 90.0208Z" fill="#FF7685"/>
<path d="M34.7638 90.6728C34.9221 90.673 35.0777 90.6323 35.2156 90.5544C35.3535 90.4766 35.4689 90.3643 35.5506 90.2285C35.6323 90.0928 35.6774 89.9381 35.6817 89.7797C35.686 89.6212 35.6493 89.4643 35.575 89.3243C35.7023 89.3915 35.8121 89.4878 35.8955 89.6052C35.9788 89.7227 36.0335 89.8581 36.055 90.0006C36.0765 90.1431 36.0643 90.2887 36.0194 90.4256C35.9745 90.5625 35.898 90.6869 35.7963 90.7888C35.6945 90.8907 35.5703 90.9673 35.4336 91.0123C35.2969 91.0573 35.1515 91.0695 35.0092 91.0479C34.867 91.0264 34.7317 90.9716 34.6144 90.8881C34.4972 90.8047 34.4011 90.6947 34.334 90.5672C34.4666 90.6369 34.6141 90.6731 34.7638 90.6728Z" fill="#E86477"/>
<path d="M37.2036 104.777H37.8589V102H37.2036V104.777Z" fill="#3E3D51"/>
<path d="M36.9062 104.777H38.1852C38.1852 104.704 38.1564 104.634 38.1051 104.582C38.0538 104.531 37.9841 104.501 37.9113 104.501H37.1823C37.1091 104.501 37.0389 104.53 36.9871 104.582C36.9353 104.634 36.9062 104.704 36.9062 104.777Z" fill="#3E3D51"/>
<path d="M127.699 68.3832C128.565 64.9015 130.826 62.4094 133.473 62.4094V63.1648C130.498 63.1648 128.077 66.9146 128.077 71.5252V99.1808H127.324V71.5252C127.324 66.9146 124.903 63.1648 121.928 63.1648V62.4094C124.575 62.4094 126.836 64.9015 127.699 68.3832Z" fill="#333343"/>
<path d="M131.922 62.6502C131.894 63.1839 132.029 63.7134 132.308 64.1689C132.586 64.6244 132.997 64.9846 133.484 65.2017C133.972 65.4189 134.514 65.4829 135.038 65.3854C135.563 65.2878 136.046 65.0332 136.423 64.6552C136.8 64.2772 137.054 63.7936 137.151 63.2681C137.248 62.7427 137.183 62.2001 136.966 61.7121C136.749 61.224 136.389 60.8135 135.934 60.5345C135.478 60.2556 134.95 60.1214 134.417 60.1497C133.766 60.1838 133.151 60.4583 132.69 60.9201C132.229 61.3819 131.956 61.9983 131.922 62.6502Z" fill="#FF7685"/>
<path d="M133.283 60.4745C133.008 60.9758 132.903 61.5528 132.984 62.1189C133.065 62.685 133.326 63.2096 133.73 63.614C134.134 64.0183 134.658 64.2806 135.223 64.3613C135.788 64.4421 136.365 64.337 136.865 64.0618C136.668 64.4212 136.39 64.7298 136.053 64.9631C135.717 65.1963 135.33 65.3479 134.925 65.4058C134.52 65.4637 134.106 65.4263 133.718 65.2966C133.33 65.1669 132.977 64.9484 132.687 64.6585C132.398 64.3685 132.18 64.0151 132.05 63.6261C131.92 63.2371 131.883 62.8233 131.941 62.4173C131.999 62.0114 132.15 61.6245 132.383 61.2873C132.616 60.9501 132.924 60.6718 133.283 60.4745Z" fill="#E86477"/>
<path d="M118.18 62.6502C118.152 63.1837 118.286 63.7131 118.565 64.1686C118.844 64.6241 119.254 64.9843 119.742 65.2015C120.229 65.4188 120.771 65.483 121.295 65.3856C121.82 65.2882 122.302 65.0338 122.68 64.656C123.057 64.2783 123.311 63.7948 123.408 63.2695C123.505 62.7442 123.441 62.2017 123.224 61.7136C123.007 61.2255 122.648 60.8147 122.193 60.5355C121.738 60.2563 121.209 60.1217 120.677 60.1496C120.026 60.1837 119.41 60.458 118.949 60.9198C118.488 61.3816 118.214 61.998 118.18 62.6502Z" fill="#FF7685"/>
<path d="M119.71 64.3215C120.164 64.3211 120.61 64.2034 121.005 63.9796C121.401 63.7558 121.732 63.4337 121.966 63.0443C122.201 62.6548 122.331 62.2114 122.344 61.7568C122.358 61.3022 122.253 60.8518 122.042 60.4493C122.408 60.6421 122.723 60.9183 122.963 61.2556C123.203 61.5929 123.36 61.9819 123.422 62.3912C123.484 62.8005 123.449 63.2187 123.32 63.612C123.191 64.0053 122.971 64.3627 122.679 64.6554C122.387 64.9481 122.03 65.168 121.637 65.2972C121.244 65.4264 120.827 65.4614 120.418 65.3993C120.009 65.3373 119.621 65.1799 119.284 64.9399C118.947 64.6999 118.672 64.384 118.479 64.0176C118.858 64.2178 119.281 64.3221 119.71 64.3215Z" fill="#E86477"/>
<path d="M126.713 104.805H128.595V96.8346H126.713V104.805Z" fill="#3E3D51"/>
<path d="M125.864 104.804H129.532C129.533 104.7 129.512 104.597 129.473 104.501C129.433 104.405 129.375 104.317 129.302 104.243C129.228 104.17 129.141 104.111 129.045 104.071C128.949 104.032 128.846 104.011 128.742 104.011H126.654C126.444 104.011 126.242 104.095 126.094 104.243C125.945 104.392 125.862 104.594 125.862 104.804H125.864Z" fill="#3E3D51"/>
<path d="M80.1223 25.7817C80.1223 25.7817 78.8581 25.5833 78.5841 26.3219C78.4186 26.7177 78.3919 27.1581 78.5083 27.5711L79.2795 26.6975C79.2795 26.6975 80.6427 26.8072 80.767 26.4865C80.8913 26.1657 80.1223 25.7817 80.1223 25.7817Z" fill="#FFAF95"/>
<path d="M64.4247 25.8131C64.4247 25.8131 66.8836 34.7644 69.155 35.4079C71.4264 36.0515 78.4261 28.4909 78.4261 28.4909L80.1496 30.3267C80.1496 30.3267 74.0834 38.1659 68.603 39.6894C63.1225 41.213 61.1777 33.6523 61.1777 33.6523L64.4247 25.8131Z" fill="#FFAF95"/>
<g style="mix-blend-mode:multiply" opacity="0.37">
<path d="M64.3573 25.8766L61.1777 33.6524C61.1777 33.6524 62.1428 37.4106 64.6333 39.0966C64.9446 38.9972 65.2284 38.8261 65.4619 38.5971C65.6953 38.3681 65.8719 38.0875 65.9776 37.7778C67.4905 34.0386 64.3573 25.8766 64.3573 25.8766Z" fill="#FF7685"/>
</g>
<path d="M84.6965 24.3491C84.6965 24.3491 82.2945 23.5451 81.7466 24.1022C81.1988 24.6593 77.1111 28.8775 77.227 29.2847C77.2607 29.4114 79.058 30.2343 80.0441 30.0697C81.0302 29.9051 85.7732 24.7901 84.6965 24.3491Z" fill="#333343"/>
<path d="M83.5543 24.3489C83.0417 24.1829 82.5178 24.0545 81.9866 23.9649C82.7957 23.7138 84.6963 24.3489 84.6963 24.3489C85.773 24.79 81.0237 29.9049 80.0376 30.0695C79.7136 30.1078 79.3853 30.0878 79.0684 30.0105C80.3347 29.4133 84.5783 24.7689 83.5543 24.3489Z" fill="#3E3D51"/>
<path d="M83.0047 27.2861C83.0047 27.2861 83.0047 27.6807 82.6085 28.6682C82.2124 29.6557 80.5689 30.58 80.0801 30.58C79.5912 30.58 77.6464 29.1514 77.9245 28.8729C78.2027 28.5943 79.4796 27.8579 79.4796 27.5941C79.4796 27.3304 81.6877 27.0349 83.0047 27.2861Z" fill="#FFAF95"/>
<path d="M98.9002 104.897C95.2656 104.898 91.7126 103.819 88.6904 101.797C85.6683 99.7748 83.3127 96.9007 81.9216 93.538C80.5306 90.1753 80.1665 86.4749 80.8754 82.905C81.5844 79.335 83.3346 76.0558 85.9046 73.482C88.4746 70.9083 91.749 69.1556 95.3137 68.4456C98.8784 67.7355 102.573 68.1001 105.931 69.4933C109.289 70.8864 112.159 73.2454 114.178 76.272C116.197 79.2986 117.274 82.8569 117.274 86.4967C117.268 91.3751 115.331 96.0521 111.886 99.5017C108.442 102.951 103.771 104.892 98.9002 104.897ZM98.9002 70.3942C95.72 70.3938 92.6111 71.3378 89.9666 73.107C87.3222 74.8761 85.261 77.3908 84.0437 80.3331C82.8264 83.2754 82.5077 86.5132 83.1278 89.6369C83.748 92.7606 85.2792 95.63 87.5278 97.8822C89.7764 100.134 92.6414 101.668 95.7604 102.29C98.8795 102.911 102.113 102.592 105.051 101.374C107.989 100.155 110.5 98.0911 112.267 95.443C114.034 92.795 114.977 89.6816 114.977 86.4967C114.973 82.2278 113.277 78.135 110.263 75.1162C107.249 72.0974 103.163 70.3992 98.9002 70.3942Z" fill="#333343"/>
<path d="M98.9003 100.776C96.0797 100.777 93.3223 99.9392 90.9768 98.3701C88.6314 96.801 86.8032 94.5706 85.7236 91.9609C84.644 89.3512 84.3614 86.4795 84.9116 83.709C85.4618 80.9384 86.82 78.3935 88.8145 76.3961C90.809 74.3987 93.3502 73.0384 96.1166 72.4874C98.8831 71.9365 101.751 72.2195 104.356 73.3007C106.962 74.3819 109.189 76.2127 110.756 78.5616C112.323 80.9105 113.159 83.672 113.159 86.4967C113.154 90.2825 111.651 93.9119 108.978 96.5889C106.305 99.2658 102.681 100.772 98.9003 100.776ZM98.9003 72.7892C96.1915 72.7892 93.5436 73.5936 91.2913 75.1008C89.0391 76.6079 87.2836 78.75 86.247 81.2563C85.2104 83.7626 84.9392 86.5204 85.4677 89.181C85.9961 91.8417 87.3005 94.2856 89.2159 96.2038C91.1313 98.122 93.5717 99.4284 96.2284 99.9576C98.8851 100.487 101.639 100.215 104.141 99.1771C106.644 98.139 108.783 96.3809 110.288 94.1254C111.793 91.8698 112.596 89.2179 112.596 86.5052C112.596 82.8675 111.153 79.3788 108.585 76.8065C106.016 74.2343 102.533 72.7892 98.9003 72.7892Z" fill="#FBF3FF"/>
<path d="M98.9002 98.9827C95.5947 98.9788 92.4256 97.6622 90.088 95.3216C87.7504 92.9809 86.4352 89.8074 86.4307 86.497C86.4261 84.5148 86.898 82.5606 87.8066 80.7996C87.8232 80.7651 87.8465 80.7343 87.8752 80.709C87.9038 80.6837 87.9373 80.6643 87.9735 80.6521C88.0097 80.64 88.048 80.6352 88.0861 80.638C88.1243 80.6409 88.1614 80.6513 88.1954 80.6688C88.2294 80.6862 88.2596 80.7103 88.2842 80.7396C88.3088 80.7689 88.3273 80.8029 88.3385 80.8395C88.3498 80.876 88.3537 80.9145 88.3499 80.9526C88.3461 80.9907 88.3348 81.0276 88.3165 81.0612C87.4491 82.7441 86.9996 84.6116 87.0059 86.5054C87.0074 88.5 87.5087 90.4623 88.4638 92.2126C89.419 93.9628 90.7975 95.445 92.473 96.5233C94.1486 97.6015 96.0675 98.2414 98.0541 98.3843C100.041 98.5272 102.031 98.1685 103.843 97.341C103.878 97.3254 103.915 97.3166 103.952 97.3153C103.99 97.314 104.028 97.3202 104.063 97.3334C104.098 97.3466 104.131 97.3667 104.158 97.3924C104.186 97.4182 104.208 97.4491 104.224 97.4835C104.239 97.5178 104.248 97.555 104.249 97.5927C104.251 97.6304 104.245 97.6681 104.231 97.7034C104.218 97.7388 104.198 97.7712 104.172 97.7988C104.147 97.8264 104.116 97.8487 104.081 97.8644C102.455 98.6077 100.688 98.9893 98.9002 98.9827Z" fill="#FBF3FF"/>
<path d="M107.79 78.4444C107.751 78.4449 107.711 78.437 107.675 78.4214C107.639 78.4058 107.606 78.3827 107.579 78.3536C106.465 77.1663 105.12 76.2195 103.627 75.5715C102.135 74.9234 100.525 74.5877 98.8983 74.5849C98.8584 74.5883 98.8183 74.5835 98.7805 74.5705C98.7426 74.5576 98.7079 74.5369 98.6784 74.5099C98.649 74.4828 98.6255 74.4499 98.6094 74.4132C98.5933 74.3765 98.585 74.3369 98.585 74.2969C98.585 74.2569 98.5933 74.2173 98.6094 74.1806C98.6255 74.1439 98.649 74.111 98.6784 74.0839C98.7079 74.0568 98.7426 74.0362 98.7805 74.0233C98.8183 74.0104 98.8584 74.0054 98.8983 74.0089C100.604 74.0118 102.291 74.364 103.856 75.0436C105.421 75.7233 106.831 76.7161 107.999 77.9612C108.05 78.0169 108.078 78.0908 108.075 78.1668C108.072 78.2427 108.039 78.3145 107.984 78.3663C107.932 78.4166 107.862 78.4446 107.79 78.4444Z" fill="#FBF3FF"/>
<path d="M79.0073 87.3576C78.7791 87.3576 78.5602 87.2669 78.3987 87.1055C78.2371 86.9441 78.1461 86.7252 78.1455 86.4966C78.1454 82.5331 79.2768 78.6522 81.4065 75.3115C83.5361 71.9707 86.5752 69.3094 90.1653 67.6413C93.7555 65.9732 97.747 65.3679 101.669 65.8968C105.592 66.4257 109.281 68.0666 112.303 70.6262C112.477 70.7742 112.586 70.9856 112.605 71.2137C112.623 71.4419 112.551 71.6681 112.403 71.8427C112.255 72.0173 112.044 72.126 111.816 72.1448C111.589 72.1636 111.363 72.091 111.188 71.9429C108.417 69.5953 105.033 68.0904 101.436 67.6057C97.8384 67.1209 94.1776 67.6765 90.8853 69.207C87.5929 70.7375 84.8062 73.179 82.854 76.2436C80.9017 79.3081 79.8653 82.8679 79.867 86.503C79.8653 86.7302 79.774 86.9475 79.6129 87.1076C79.4519 87.2677 79.2342 87.3576 79.0073 87.3576Z" fill="#8282A8"/>
<path d="M60.438 77.5309L56.9192 80.5822C56.9192 80.5822 55.7372 80.7109 55.3052 80.0948C55.045 79.7148 54.9244 79.2561 54.9639 78.797L58.2488 74.8658L60.438 77.5309Z" fill="#FFAF95"/>
<path d="M57.6629 79.9362C58.4214 79.6387 57.6629 79.9363 58.5373 82.6351C59.3464 84.4098 60.2335 85.1315 59.9301 85.4923C59.7329 85.7169 59.4852 85.8912 59.2074 86.0008L53.0464 80.1473C53.0464 80.1473 54.5045 77.7818 55.1008 78.6301C57.7303 80.8605 57.6629 79.9362 57.6629 79.9362Z" fill="#8282A8"/>
<path d="M55.2737 49.1662L60.8236 50.2993C60.8236 50.2993 75.8132 57.9254 75.337 62.804C74.8608 67.6827 60.6656 78.5879 60.6656 78.5879L57.4587 75.1378C57.4587 75.1378 65.4507 65.7371 65.1157 64.5681C64.7807 63.3991 45.9268 55.6823 45.3094 53.8064C44.6921 51.9305 47.9201 48.6787 47.9201 48.6787L55.2737 49.1662Z" fill="#333343"/>
<path d="M71.9865 63.3887C71.7274 60.2235 64.8563 53.8445 60.737 50.2826L55.2734 49.1663L47.9156 48.6852C47.9156 48.6852 44.6834 51.9433 45.305 53.8128C45.9266 55.6824 64.7804 63.3971 65.1112 64.5746C65.442 65.752 57.4542 75.1443 57.4542 75.1443L58.847 76.6425C63.2402 73.5659 72.2668 66.8155 71.9865 63.3887Z" fill="#333343"/>
<path d="M41.2994 104.897C37.665 104.897 34.1122 103.818 31.0903 101.796C28.0684 99.7735 25.7131 96.8993 24.3224 93.5365C22.9316 90.1737 22.5679 86.4735 23.2771 82.9037C23.9863 79.3339 25.7366 76.0548 28.3067 73.4813C30.8768 70.9077 34.1512 69.1552 37.7158 68.4454C41.2805 67.7356 44.9753 68.1003 48.3329 69.4935C51.6906 70.8866 54.5604 73.2457 56.5792 76.2722C58.5981 79.2988 59.6755 82.857 59.6751 86.4967C59.6689 91.3753 57.7309 96.0523 54.2861 99.5018C50.8412 102.951 46.1709 104.892 41.2994 104.897ZM41.2994 70.3942C38.1193 70.3942 35.0106 71.3386 32.3665 73.108C29.7223 74.8774 27.6614 77.3922 26.4445 80.3346C25.2275 83.2769 24.9091 86.5146 25.5295 89.6382C26.1499 92.7618 27.6813 95.631 29.9299 97.8829C32.1786 100.135 35.0436 101.669 38.1626 102.29C41.2816 102.911 44.5145 102.592 47.4526 101.374C50.3906 100.155 52.9018 98.0909 54.6686 95.4428C56.4354 92.7948 57.3784 89.6815 57.3784 86.4967C57.3739 82.2275 55.6784 78.1343 52.664 75.1155C49.6496 72.0966 45.5625 70.3987 41.2994 70.3942Z" fill="#333343"/>
<path d="M41.2996 100.776C38.479 100.776 35.7218 99.9385 33.3766 98.3691C31.0315 96.7997 29.2037 94.5692 28.1244 91.9594C27.0451 89.3497 26.7628 86.4781 27.3132 83.7077C27.8636 80.9373 29.222 78.3926 31.2166 76.3953C33.2112 74.3981 35.7524 73.0381 38.5188 72.4873C41.2852 71.9365 44.1526 72.2196 46.7583 73.3009C49.364 74.3821 51.5911 76.2129 53.1578 78.5618C54.7245 80.9107 55.5605 83.6721 55.5601 86.4968C55.5562 90.283 54.0524 93.9131 51.3789 96.5902C48.7053 99.2673 45.0803 100.773 41.2996 100.776ZM41.2996 72.7892C38.5908 72.7892 35.9429 73.5936 33.6906 75.1008C31.4383 76.6079 29.6829 78.75 28.6463 81.2563C27.6097 83.7626 27.3385 86.5204 27.8669 89.181C28.3954 91.8417 29.6998 94.2856 31.6152 96.2038C33.5306 98.122 35.9709 99.4284 38.6277 99.9576C41.2844 100.487 44.0382 100.215 46.5408 99.1771C49.0433 98.139 51.1823 96.3809 52.6873 94.1254C54.1922 91.8698 54.9954 89.2179 54.9954 86.5052C54.9954 82.8675 53.5525 79.3788 50.984 76.8065C48.4155 74.2343 44.9319 72.7892 41.2996 72.7892Z" fill="#FBF3FF"/>
<path d="M41.2995 98.9825C37.9941 98.9786 34.8253 97.6619 32.488 95.3212C30.1508 92.9805 28.836 89.807 28.8321 86.4968C28.8267 84.5147 29.2979 82.5605 30.2059 80.7994C30.2405 80.7314 30.3007 80.6799 30.3732 80.6564C30.4457 80.6328 30.5246 80.6391 30.5925 80.6738C30.6604 80.7085 30.7118 80.7688 30.7353 80.8414C30.7588 80.914 30.7525 80.993 30.7179 81.061C29.8501 82.7438 29.3998 84.6112 29.4052 86.5052C29.407 88.4998 29.9086 90.4621 30.864 92.2123C31.8195 93.9625 33.1982 95.4446 34.8738 96.5228C36.5495 97.601 38.4685 98.2409 40.4551 98.3838C42.4418 98.5267 44.4324 98.1681 46.2447 97.3408C46.314 97.3092 46.393 97.3064 46.4643 97.3331C46.5357 97.3598 46.5935 97.4138 46.6251 97.4832C46.6566 97.5526 46.6594 97.6318 46.6327 97.7032C46.606 97.7746 46.5521 97.8325 46.4828 97.8641C44.856 98.6075 43.0877 98.989 41.2995 98.9825Z" fill="#FBF3FF"/>
<path d="M50.1914 78.4447C50.152 78.4449 50.1129 78.4369 50.0766 78.4213C50.0404 78.4057 50.0077 78.3828 49.9807 78.3539C48.8666 77.1664 47.5218 76.2195 46.029 75.5714C44.5361 74.9233 42.9267 74.5877 41.2997 74.5852C41.2276 74.579 41.1606 74.546 41.1117 74.4927C41.0628 74.4394 41.0356 74.3696 41.0356 74.2972C41.0356 74.2248 41.0628 74.155 41.1117 74.1017C41.1606 74.0483 41.2276 74.0153 41.2997 74.0092C43.0057 74.0127 44.6931 74.3654 46.258 75.0458C47.823 75.7262 49.2325 76.7198 50.4 77.9657C50.4383 78.0066 50.4638 78.0579 50.4734 78.1132C50.4829 78.1685 50.476 78.2253 50.4536 78.2767C50.4311 78.3282 50.3942 78.3719 50.3472 78.4025C50.3002 78.4331 50.2454 78.4492 50.1893 78.4489L50.1914 78.4447Z" fill="#FBF3FF"/>
<path d="M54.1466 72.148C53.942 72.146 53.7449 72.0712 53.5903 71.937C50.4323 69.2654 46.4917 67.696 42.3641 67.466C38.2365 67.2361 34.1464 68.3581 30.712 70.6624C30.5222 70.786 30.2915 70.8298 30.0697 70.7845C29.848 70.7391 29.6529 70.6082 29.5267 70.4201C29.4005 70.2319 29.3533 70.0015 29.3953 69.7788C29.4373 69.556 29.5651 69.3588 29.7511 69.2296C33.4985 66.7158 37.9613 65.4924 42.4647 65.7444C46.968 65.9965 51.2669 67.7102 54.7113 70.6265C54.8458 70.7408 54.9422 70.8936 54.9872 71.0644C55.0323 71.2352 55.0239 71.4158 54.9633 71.5817C54.9026 71.7476 54.7926 71.8908 54.6481 71.9921C54.5035 72.0933 54.3314 72.1478 54.155 72.148H54.1466Z" fill="#8282A8"/>
<path d="M41.2996 84.5956C41.2365 84.5956 41.1759 84.5704 41.1313 84.5257C41.0866 84.481 41.0615 84.4204 41.0615 84.3571C41.0615 84.2939 41.0866 84.2332 41.1313 84.1885C41.1759 84.1438 41.2365 84.1187 41.2996 84.1187L66.599 82.9454C66.6303 82.944 66.6615 82.9488 66.6909 82.9595C66.7203 82.9702 66.7474 82.9866 66.7705 83.0078C66.7935 83.029 66.8122 83.0545 66.8255 83.0829C66.8387 83.1113 66.8463 83.142 66.8476 83.1733C66.849 83.2046 66.8442 83.2359 66.8335 83.2654C66.8229 83.2948 66.8065 83.3219 66.7854 83.345C66.7642 83.3681 66.7388 83.3869 66.7104 83.4001C66.682 83.4134 66.6513 83.4209 66.6201 83.4223L41.3207 84.5956H41.2996Z" fill="#3E3D51"/>
<path d="M66.9531 90.046L41.2956 88.8728C41.2326 88.8695 41.1735 88.8416 41.1309 88.795C41.0883 88.7484 41.0657 88.6869 41.068 88.6238C41.0723 88.5611 41.1006 88.5025 41.1468 88.4601C41.1931 88.4177 41.2539 88.3947 41.3167 88.3959L66.97 89.5713C67.0332 89.5729 67.093 89.5997 67.1365 89.6456C67.18 89.6915 67.2035 89.7528 67.2018 89.816C67.2001 89.8793 67.1734 89.9392 67.1276 89.9828C67.0817 90.0263 67.0205 90.0498 66.9574 90.0482L66.9531 90.046Z" fill="#3E3D51"/>
<path d="M41.2997 89.1112C40.7829 89.1112 40.2777 88.9577 39.848 88.6701C39.4183 88.3824 39.0834 87.9737 38.8857 87.4954C38.688 87.0172 38.6364 86.491 38.7374 85.9834C38.8384 85.4757 39.0874 85.0095 39.453 84.6437C39.8186 84.2778 40.2844 84.0288 40.7913 83.9281C41.2983 83.8274 41.8237 83.8795 42.3011 84.0778C42.7784 84.2762 43.1863 84.6119 43.4732 85.0425C43.76 85.473 43.9129 85.9791 43.9125 86.4967C43.9114 87.1902 43.6357 87.8548 43.1459 88.3449C42.6561 88.8351 41.9922 89.1106 41.2997 89.1112Z" fill="#3E3D51"/>
<path d="M63.603 82.3124C63.4369 82.3121 63.276 82.2542 63.1477 82.1485C63.0195 82.0428 62.9317 81.8959 62.8995 81.7327C62.8672 81.5695 62.8923 81.4002 62.9706 81.2535C63.049 81.1068 63.1756 80.9918 63.3291 80.9281C66.4941 79.6189 69.096 77.2328 70.6764 74.1904L74.7324 66.3829C76.1102 63.7262 78.2065 61.5112 80.7818 59.9913L83.3988 58.4445C83.4799 58.3903 83.5713 58.3533 83.6673 58.3356C83.7632 58.3179 83.8618 58.32 83.9569 58.3417C84.0521 58.3634 84.1418 58.4043 84.2206 58.4619C84.2995 58.5195 84.3658 58.5926 84.4155 58.6766C84.4652 58.7607 84.4973 58.8541 84.5098 58.951C84.5223 59.0479 84.515 59.1464 84.4883 59.2403C84.4616 59.3343 84.416 59.4219 84.3544 59.4976C84.2928 59.5734 84.2164 59.6358 84.1299 59.6811L81.5108 61.2299C79.1717 62.6112 77.267 64.6226 76.0135 67.0349L71.9575 74.8425C70.2207 78.1859 67.3614 80.8081 63.8832 82.247C63.7949 82.2868 63.6997 82.309 63.603 82.3124Z" fill="#8282A8"/>
<path d="M65.6401 86.1022C65.5116 86.103 65.3853 86.0693 65.2741 86.0048C65.163 85.9402 65.0711 85.8471 65.008 85.735L49.1714 57.3747C49.1253 57.2915 49.0961 57.2001 49.0853 57.1057C49.0745 57.0112 49.0823 56.9155 49.1085 56.8241C49.1346 56.7327 49.1784 56.6473 49.2375 56.5729C49.2966 56.4985 49.3697 56.4364 49.4527 56.3903C49.5357 56.3441 49.627 56.3148 49.7213 56.304C49.8156 56.2932 49.9111 56.3011 50.0024 56.3273C50.0937 56.3534 50.1789 56.3973 50.2533 56.4565C50.3276 56.5156 50.3896 56.5888 50.4356 56.672L66.2722 85.0323C66.3652 85.1988 66.3884 85.3955 66.3366 85.5791C66.2849 85.7627 66.1624 85.9182 65.9962 86.0114C65.8872 86.0717 65.7646 86.103 65.6401 86.1022Z" fill="#8282A8"/>
<path d="M59.9325 87.2144H41.2999C41.2024 87.2197 41.1049 87.205 41.0132 87.1713C40.9216 87.1376 40.8377 87.0855 40.7669 87.0183C40.696 86.951 40.6395 86.87 40.601 86.7802C40.5624 86.6904 40.5425 86.5936 40.5425 86.4959C40.5425 86.3981 40.5624 86.3013 40.601 86.2115C40.6395 86.1217 40.696 86.0407 40.7669 85.9735C40.8377 85.9062 40.9216 85.8541 41.0132 85.8204C41.1049 85.7867 41.2024 85.7721 41.2999 85.7774H59.9325C62.591 85.7822 65.1994 85.0536 67.4715 83.6715C69.7436 82.2894 71.5917 80.3072 72.8129 77.9424L76.869 70.1243C78.246 67.4677 80.3416 65.2528 82.9163 63.7327L85.5353 62.1859C85.6164 62.138 85.7061 62.1065 85.7993 62.0933C85.8925 62.0801 85.9875 62.0853 86.0786 62.1089C86.1698 62.1324 86.2555 62.1736 86.3307 62.2303C86.406 62.287 86.4693 62.3579 86.5172 62.4391C86.5651 62.5203 86.5965 62.6102 86.6097 62.7035C86.6229 62.7969 86.6176 62.8919 86.5941 62.9832C86.5706 63.0745 86.5294 63.1603 86.4729 63.2357C86.4163 63.3111 86.3454 63.3745 86.2644 63.4224L83.6474 64.9692C81.3032 66.3543 79.3953 68.3717 78.1417 70.7911L74.0856 78.5986C72.7451 81.1987 70.7149 83.3785 68.2181 84.8984C65.7213 86.4184 62.8544 87.2197 59.9325 87.2144Z" fill="#8282A8"/>
<path d="M41.2998 87.0709C41.1991 87.0706 41.1002 87.0439 41.013 86.9933C40.9258 86.9427 40.8534 86.8701 40.8031 86.7827C40.7527 86.6953 40.7262 86.5963 40.7261 86.4954C40.726 86.3945 40.7524 86.2953 40.8025 86.2078L53.5186 64.2792C53.5989 64.1555 53.7236 64.0673 53.8669 64.0329C54.0103 63.9986 54.1613 64.0206 54.2889 64.0945C54.4165 64.1684 54.5109 64.2885 54.5526 64.4301C54.5943 64.5717 54.5802 64.7239 54.5131 64.8553L41.7971 86.786C41.7464 86.873 41.6738 86.9451 41.5865 86.9951C41.4992 87.0451 41.4004 87.0713 41.2998 87.0709Z" fill="#8282A8"/>
<path d="M66.5989 90.2846C65.8487 90.2846 65.1155 90.0619 64.4917 89.6445C63.868 89.2271 63.3819 88.6339 63.0949 87.9399C62.8078 87.2459 62.7327 86.4822 62.879 85.7454C63.0254 85.0086 63.3866 84.3318 63.917 83.8006C64.4474 83.2694 65.1232 82.9077 65.8589 82.7611C66.5946 82.6145 67.3572 82.6898 68.0503 82.9772C68.7433 83.2647 69.3356 83.7516 69.7524 84.3762C70.1691 85.0008 70.3916 85.7351 70.3916 86.4864C70.3916 87.4937 69.992 88.4598 69.2807 89.1721C68.5694 89.8844 67.6047 90.2846 66.5989 90.2846Z" fill="#3E3D51"/>
<path d="M39.165 86.4969C39.165 86.9202 39.2904 87.3339 39.5253 87.6858C39.7601 88.0378 40.0939 88.312 40.4845 88.4739C40.875 88.6358 41.3047 88.678 41.7192 88.5953C42.1337 88.5126 42.5144 88.3086 42.8131 88.0091C43.1118 87.7097 43.3152 87.3282 43.3974 86.913C43.4796 86.4978 43.4369 86.0675 43.2749 85.6766C43.1129 85.2856 42.8387 84.9516 42.4871 84.7167C42.1354 84.4819 41.7222 84.3568 41.2995 84.3572C40.7332 84.3577 40.1903 84.5834 39.7901 84.9846C39.3899 85.3858 39.165 85.9298 39.165 86.4969Z" fill="#FBF3FF"/>
<path d="M63.291 86.4969C63.291 87.1521 63.485 87.7926 63.8485 88.3374C64.212 88.8822 64.7287 89.3069 65.3331 89.5576C65.9376 89.8084 66.6028 89.874 67.2445 89.7461C67.8862 89.6183 68.4756 89.3028 68.9382 88.8395C69.4009 88.3761 69.7159 87.7858 69.8436 87.1432C69.9712 86.5006 69.9057 85.8344 69.6553 85.2291C69.405 84.6237 68.981 84.1063 68.437 83.7423C67.8929 83.3783 67.2534 83.184 66.5991 83.184C66.1646 83.1837 65.7343 83.2692 65.3328 83.4356C64.9313 83.602 64.5666 83.846 64.2593 84.1537C63.9521 84.4614 63.7084 84.8267 63.5423 85.2287C63.3761 85.6308 63.2907 86.0618 63.291 86.4969Z" fill="#FBF3FF"/>
<path d="M69.3253 97.3513C69.1804 97.3506 69.0411 97.2951 68.9352 97.196C68.8294 97.0968 68.7648 96.9613 68.7544 96.8165C68.744 96.6717 68.7886 96.5284 68.8792 96.4151C68.9698 96.3018 69.0998 96.2269 69.2432 96.2055L75.5643 95.2728C75.6389 95.2618 75.7149 95.2655 75.788 95.2838C75.8612 95.3021 75.93 95.3347 75.9905 95.3797C76.0511 95.4247 76.1022 95.4811 76.141 95.5459C76.1797 95.6107 76.2054 95.6824 76.2165 95.7571C76.2275 95.8318 76.2238 95.9079 76.2055 95.9812C76.1872 96.0544 76.1546 96.1233 76.1097 96.1839C76.0648 96.2446 76.0084 96.2958 75.9438 96.3346C75.8791 96.3734 75.8075 96.3991 75.7329 96.4102L69.4117 97.345C69.3831 97.3493 69.3543 97.3514 69.3253 97.3513Z" fill="#3E3D51"/>
<path d="M72.4864 96.5961C72.4373 96.5966 72.3889 96.5841 72.346 96.5601C72.3031 96.536 72.2673 96.5012 72.242 96.459L66.3549 86.9359C66.3219 86.8713 66.3144 86.7967 66.3338 86.7268C66.3532 86.657 66.3981 86.597 66.4597 86.5587C66.5212 86.5205 66.5948 86.5068 66.666 86.5204C66.7371 86.534 66.8005 86.5738 66.8437 86.632L72.7287 96.1572C72.7487 96.1892 72.7622 96.2248 72.7684 96.262C72.7746 96.2992 72.7733 96.3372 72.7647 96.3739C72.756 96.4106 72.7402 96.4453 72.7181 96.4758C72.6961 96.5063 72.6681 96.5322 72.636 96.5518C72.5913 96.5805 72.5394 96.5959 72.4864 96.5961Z" fill="#3E3D51"/>
<path d="M45.855 55.6571H51.4555C51.5545 55.6571 51.6525 55.6767 51.7439 55.7146C51.8353 55.7526 51.9183 55.8083 51.9882 55.8785C52.0581 55.9486 52.1134 56.0319 52.1511 56.1236C52.1888 56.2152 52.208 56.3134 52.2078 56.4125V57.3135C52.2078 57.5133 52.1285 57.7049 51.9874 57.8462C51.8464 57.9875 51.655 58.0668 51.4555 58.0668H44.3843C44.2571 58.0676 44.1318 58.0359 44.0202 57.9748C43.9086 57.9137 43.8143 57.8252 43.7463 57.7176C43.6782 57.61 43.6386 57.4868 43.6312 57.3596C43.6237 57.2325 43.6487 57.1055 43.7037 56.9907C43.9033 56.5903 44.2102 56.2534 44.5902 56.0179C44.9702 55.7823 45.4081 55.6574 45.855 55.6571Z" fill="#FF7685"/>
<path d="M69.5427 87.358V94.0429C69.5427 94.0429 68.9675 95.0853 68.2153 95.0853C67.7105 95.0746 67.2094 94.9959 66.7256 94.8511L65.9902 86.0117L69.5427 87.358Z" fill="#FFAF95"/>
<path d="M69.4436 93.0636C69.6375 92.2702 69.4436 93.0636 72.1491 93.9076C74.0644 94.2685 75.1643 93.9562 75.2844 94.412C75.3548 94.7032 75.3548 95.007 75.2844 95.2982L66.9573 96.9863C66.9573 96.9863 65.8659 94.4288 66.9025 94.4288C70.2359 93.5405 69.4436 93.0636 69.4436 93.0636Z" fill="#8282A8"/>
<path d="M58.6554 48.1577C58.6554 48.1577 69.5173 58.1745 71.1461 65.8829C72.7748 73.5913 69.9029 89.9934 69.9029 89.9934C69.9029 89.9934 68.3395 90.7615 65.1452 90.3775C65.1452 90.3775 65.2063 68.9574 64.0579 67.4233C62.9096 65.8892 45.2525 56.2564 44.3907 53.3824C43.5289 50.5084 45.7413 47.3431 45.7413 47.3431L58.6554 48.1577Z" fill="#3E3D51"/>
<path d="M67.3743 89.0798H67.3574C67.2961 89.0729 67.2399 89.0424 67.2006 88.9948C67.1613 88.9472 67.142 88.8861 67.1467 88.8245L67.2647 87.187C67.2716 87.1256 67.3021 87.0693 67.3496 87.0299C67.3972 86.9906 67.4582 86.9712 67.5197 86.976C67.5808 86.9834 67.6367 87.0141 67.6759 87.0616C67.7151 87.1091 67.7346 87.1699 67.7304 87.2314L67.6103 88.8688C67.604 88.927 67.5764 88.9808 67.5328 89.0198C67.4892 89.0588 67.4327 89.0802 67.3743 89.0798ZM67.6082 85.8049H67.585C67.5237 85.798 67.4675 85.7675 67.4282 85.7198C67.3888 85.6722 67.3695 85.6112 67.3743 85.5495L67.4881 83.9121C67.495 83.8507 67.5254 83.7944 67.573 83.755C67.6205 83.7156 67.6815 83.6963 67.743 83.7011C67.8041 83.7085 67.86 83.7391 67.8993 83.7866C67.9385 83.8341 67.958 83.8949 67.9537 83.9564L67.8378 85.5939C67.8312 85.6515 67.8038 85.7048 67.7607 85.7436C67.7176 85.7825 67.6619 85.8042 67.604 85.8049H67.6082ZM67.84 82.5299H67.8231C67.7601 82.5251 67.7016 82.4955 67.6601 82.4477C67.6187 82.4 67.5978 82.3378 67.6019 82.2746L67.7156 80.6371C67.721 80.5746 67.7503 80.5167 67.7975 80.4754C67.8446 80.434 67.9059 80.4126 67.9685 80.4156C67.9998 80.4177 68.0303 80.426 68.0584 80.44C68.0865 80.454 68.1115 80.4735 68.1321 80.4972C68.1527 80.5209 68.1683 80.5485 68.1782 80.5783C68.1881 80.6081 68.192 80.6396 68.1897 80.6709L68.0759 82.3084C68.0716 82.369 68.0444 82.4257 67.9997 82.4669C67.9551 82.5081 67.8964 82.5306 67.8357 82.5299H67.84ZM68.0633 79.255H68.0464C67.9853 79.2476 67.9294 79.217 67.8902 79.1694C67.851 79.1219 67.8315 79.0612 67.8357 78.9997C67.8737 78.4531 67.9095 77.9066 67.9474 77.3622C67.9523 77.2995 67.9815 77.2412 68.0287 77.1998C68.076 77.1583 68.1376 77.1371 68.2003 77.1406C68.2612 77.1475 68.3171 77.1777 68.3563 77.2249C68.3956 77.2721 68.4151 77.3326 68.411 77.3938C68.3758 77.9383 68.3393 78.4848 68.3014 79.0334C68.2971 79.0944 68.2695 79.1514 68.2244 79.1927C68.1793 79.2339 68.1201 79.2562 68.0591 79.255H68.0633ZM68.274 75.98H68.2593C68.2279 75.9784 68.1971 75.9706 68.1688 75.9569C68.1405 75.9432 68.1152 75.9241 68.0944 75.9005C68.0736 75.8769 68.0577 75.8494 68.0477 75.8196C68.0376 75.7897 68.0336 75.7582 68.0359 75.7268C68.0717 75.1719 68.1075 74.6232 68.1413 74.0893C68.1413 74.0567 68.1479 74.0244 68.1609 73.9945C68.1739 73.9645 68.1929 73.9375 68.2167 73.9152C68.2405 73.8929 68.2686 73.8758 68.2993 73.8648C68.33 73.8538 68.3627 73.8493 68.3952 73.8514C68.4277 73.8536 68.4595 73.8624 68.4884 73.8774C68.5174 73.8924 68.543 73.9131 68.5637 73.9384C68.5843 73.9637 68.5995 73.9929 68.6084 74.0243C68.6173 74.0557 68.6197 74.0886 68.6153 74.121C68.5816 74.6556 68.5472 75.2014 68.5121 75.7585C68.5074 75.8179 68.4809 75.8734 68.4377 75.9143C68.3945 75.9552 68.3377 75.9787 68.2782 75.98H68.274ZM68.4847 72.703H68.47C68.4387 72.7011 68.4081 72.6931 68.3799 72.6793C68.3517 72.6655 68.3265 72.6464 68.3058 72.6228C68.285 72.5993 68.2691 72.5719 68.259 72.5422C68.2488 72.5125 68.2446 72.4811 68.2466 72.4498C68.2803 71.8779 68.314 71.3293 68.3435 70.8123C68.3514 70.7526 68.3816 70.6982 68.4279 70.6599C68.4742 70.6215 68.5333 70.6022 68.5933 70.6056C68.6533 70.6091 68.7097 70.6352 68.7513 70.6786C68.7929 70.722 68.8166 70.7796 68.8176 70.8397C68.7881 71.3567 68.7565 71.8948 68.7228 72.4793C68.7186 72.5398 68.6917 72.5964 68.6475 72.6379C68.6034 72.6793 68.5452 72.7026 68.4847 72.703ZM68.668 69.4238H68.6554C68.5926 69.4205 68.5336 69.3925 68.4914 69.3459C68.4492 69.2992 68.4271 69.2377 68.4299 69.1748C68.4636 68.5291 68.4868 67.9762 68.5016 67.5373C68.5021 67.5059 68.5089 67.475 68.5215 67.4462C68.5342 67.4175 68.5524 67.3915 68.5751 67.3699C68.5979 67.3483 68.6247 67.3315 68.6541 67.3203C68.6834 67.3092 68.7146 67.3041 68.746 67.3052C68.8093 67.3074 68.8692 67.3346 68.9126 67.3808C68.9561 67.4271 68.9795 67.4887 68.9778 67.5521C68.963 67.9931 68.9377 68.5502 68.9061 69.198C68.9029 69.259 68.8764 69.3165 68.8321 69.3585C68.7878 69.4005 68.729 69.4239 68.668 69.4238ZM68.4573 66.2058C68.4146 66.2068 68.3725 66.1961 68.3354 66.1749C68.2982 66.1537 68.2676 66.1228 68.2466 66.0856C67.9695 65.6363 67.6414 65.2206 67.2689 64.8469C67.2247 64.8019 67.1999 64.7413 67.1999 64.6781C67.1999 64.6149 67.2247 64.5543 67.2689 64.5093C67.2909 64.4871 67.317 64.4696 67.3457 64.4576C67.3745 64.4456 67.4053 64.4394 67.4364 64.4394C67.4676 64.4394 67.4984 64.4456 67.5272 64.4576C67.5559 64.4696 67.582 64.4871 67.604 64.5093C68.0054 64.9101 68.3589 65.3562 68.6575 65.8387C68.6889 65.8933 68.6974 65.9581 68.6812 66.019C68.665 66.0799 68.6254 66.1319 68.5711 66.1636C68.5383 66.1875 68.4998 66.2021 68.4594 66.2058H68.4573ZM66.2576 63.7897C66.1994 63.7904 66.143 63.7693 66.0995 63.7306C65.7287 63.4036 65.3073 63.0512 64.85 62.6756C64.8233 62.6569 64.8007 62.6329 64.7837 62.6051C64.7666 62.5773 64.7554 62.5463 64.7508 62.514C64.7461 62.4817 64.7481 62.4488 64.7567 62.4173C64.7653 62.3859 64.7802 62.3565 64.8006 62.331C64.821 62.3056 64.8463 62.2846 64.8752 62.2693C64.904 62.2541 64.9356 62.2449 64.9681 62.2424C65.0005 62.2398 65.0332 62.244 65.064 62.2547C65.0948 62.2653 65.1231 62.2822 65.1471 62.3042C65.6107 62.6756 66.0384 63.0322 66.4114 63.3593C66.4494 63.3908 66.4766 63.4333 66.4894 63.481C66.5022 63.5288 66.4999 63.5793 66.4828 63.6256C66.4657 63.6719 66.4346 63.7118 66.3939 63.7397C66.3531 63.7676 66.3048 63.7821 66.2554 63.7813L66.2576 63.7897ZM63.6996 61.7323C63.648 61.7314 63.5979 61.7145 63.5563 61.6838C63.1475 61.3757 62.7135 61.0508 62.2394 60.7152C62.2121 60.6978 62.1886 60.6749 62.1705 60.6481C62.1523 60.6212 62.1398 60.5909 62.1337 60.559C62.1276 60.5271 62.1281 60.4944 62.1351 60.4627C62.1421 60.431 62.1555 60.4011 62.1745 60.3748C62.1934 60.3485 62.2175 60.3263 62.2453 60.3096C62.2731 60.293 62.3041 60.2822 62.3362 60.2779C62.3683 60.2736 62.4009 60.276 62.4321 60.2848C62.4633 60.2936 62.4924 60.3087 62.5175 60.3291C62.9853 60.6646 63.4299 60.9917 63.8429 61.3019C63.8801 61.3327 63.907 61.3741 63.9202 61.4206C63.9334 61.4671 63.9321 61.5166 63.9165 61.5624C63.901 61.6081 63.8719 61.6481 63.8332 61.6769C63.7944 61.7058 63.7478 61.7222 63.6996 61.7239V61.7323ZM61.0384 59.8121C60.9895 59.8127 60.9416 59.798 60.9014 59.7699C60.4547 59.4604 60.0045 59.1509 59.5508 58.8414C59.5249 58.8238 59.5028 58.8013 59.4856 58.7751C59.4684 58.749 59.4566 58.7196 59.4507 58.6889C59.4448 58.6581 59.4451 58.6265 59.4514 58.5958C59.4577 58.5652 59.47 58.5361 59.4876 58.5101C59.5052 58.4842 59.5277 58.462 59.5538 58.4448C59.5799 58.4276 59.6092 58.4157 59.6399 58.4099C59.6706 58.404 59.7022 58.4042 59.7328 58.4106C59.7635 58.4169 59.7925 58.4292 59.8184 58.4468C60.2714 58.7549 60.7265 59.0672 61.1732 59.3795C61.2252 59.4154 61.2608 59.4704 61.2722 59.5325C61.2837 59.5946 61.27 59.6587 61.2343 59.7108C61.2129 59.7429 61.1841 59.7694 61.1504 59.7881C61.1167 59.8068 61.079 59.8172 61.0405 59.8184L61.0384 59.8121ZM58.3245 57.9657C58.2772 57.9661 58.2309 57.9521 58.1918 57.9256L56.8243 57.0204C56.7719 56.9855 56.7355 56.9314 56.7228 56.8697C56.7102 56.808 56.7224 56.7439 56.7569 56.6912C56.7917 56.6383 56.846 56.6013 56.908 56.5882C56.9699 56.5752 57.0345 56.5872 57.0877 56.6215L58.4551 57.5289C58.5076 57.5642 58.5442 57.6187 58.5568 57.6807C58.5694 57.7427 58.5571 57.8072 58.5226 57.8602C58.5011 57.8926 58.472 57.9191 58.4378 57.9375C58.4036 57.9559 58.3654 57.9656 58.3266 57.9657H58.3245ZM55.5853 56.1594C55.5394 56.1595 55.4946 56.1455 55.4568 56.1193L54.083 55.2204C54.0569 55.2032 54.0343 55.1811 54.0168 55.1552C53.9992 55.1293 53.9868 55.1002 53.9805 55.0695C53.9676 55.0076 53.9799 54.9431 54.0145 54.8902C54.0492 54.8373 54.1034 54.8003 54.1652 54.7875C54.2271 54.7746 54.2915 54.7869 54.3443 54.8216L55.716 55.7205C55.7593 55.7485 55.7925 55.7898 55.8104 55.8382C55.8283 55.8867 55.83 55.9396 55.8152 55.9891C55.8005 56.0386 55.7701 56.082 55.7287 56.1127C55.6872 56.1434 55.6369 56.1598 55.5853 56.1594ZM52.8462 54.3553C52.7989 54.3556 52.7526 54.3417 52.7134 54.3152C52.1487 53.9375 51.7021 53.6336 51.3523 53.3846C51.3256 53.3669 51.3028 53.3441 51.2852 53.3174C51.2675 53.2907 51.2554 53.2608 51.2496 53.2293C51.2438 53.1979 51.2443 53.1655 51.2512 53.1343C51.2581 53.1031 51.2712 53.0735 51.2897 53.0475C51.3083 53.0214 51.3318 52.9993 51.3591 52.9826C51.3863 52.9658 51.4166 52.9547 51.4482 52.95C51.4798 52.9452 51.512 52.9468 51.543 52.9548C51.5739 52.9628 51.6029 52.9769 51.6283 52.9963C51.9739 53.2411 52.4163 53.5429 52.9768 53.9185C53.0192 53.9468 53.0514 53.988 53.0687 54.036C53.086 54.084 53.0874 54.1363 53.0728 54.1852C53.0581 54.2341 53.0282 54.277 52.9874 54.3077C52.9467 54.3383 52.8971 54.3549 52.8462 54.3553ZM50.2545 52.3591C50.2133 52.3609 50.1724 52.3521 50.1355 52.3337C50.0986 52.3152 50.0671 52.2876 50.0438 52.2536C49.7412 51.7509 49.5601 51.1844 49.5149 50.5992C49.5115 50.568 49.5142 50.5365 49.5229 50.5063C49.5316 50.4762 49.5462 50.4481 49.5657 50.4236C49.5853 50.3991 49.6095 50.3787 49.6369 50.3636C49.6644 50.3485 49.6945 50.3389 49.7256 50.3354C49.7568 50.332 49.7883 50.3347 49.8184 50.3434C49.8484 50.3521 49.8765 50.3667 49.901 50.3863C49.9254 50.4059 49.9458 50.4301 49.9609 50.4576C49.976 50.4851 49.9856 50.5153 49.989 50.5465C50.025 51.0555 50.1794 51.5491 50.4399 51.9877C50.4574 52.0137 50.4696 52.0429 50.4758 52.0737C50.4819 52.1044 50.482 52.1361 50.4759 52.1669C50.4698 52.1977 50.4578 52.2269 50.4404 52.253C50.423 52.2791 50.4007 52.3015 50.3746 52.319C50.3385 52.3436 50.2961 52.3575 50.2524 52.3591H50.2545ZM49.7425 49.1749H49.7277C49.6644 49.1705 49.6053 49.1412 49.5634 49.0934C49.5216 49.0455 49.5003 48.983 49.5044 48.9195C49.5402 48.411 49.6055 47.8644 49.7151 47.2694C49.7204 47.2385 49.7316 47.2089 49.7483 47.1824C49.765 47.1559 49.7867 47.1329 49.8122 47.1148C49.8378 47.0966 49.8666 47.0837 49.8971 47.0768C49.9276 47.0698 49.9592 47.0689 49.9901 47.0742C50.0209 47.0795 50.0504 47.0908 50.0769 47.1074C50.1034 47.1241 50.1264 47.1459 50.1445 47.1715C50.1626 47.197 50.1755 47.2259 50.1824 47.2565C50.1894 47.287 50.1902 47.3187 50.185 47.3496C50.088 47.9193 50.0248 48.4574 49.9911 48.9512C49.9868 49.0139 49.9581 49.0724 49.9113 49.1142C49.8644 49.156 49.8031 49.1778 49.7404 49.1749H49.7425Z" fill="#ECE1EF"/>
<path d="M58.6553 48.1576L45.7454 47.3431C45.2707 48.0655 44.8898 48.8455 44.6118 49.6643C46.525 51.5824 49.1019 51.2047 52.3826 50.5632C55.0944 50.0336 58.8534 49.468 59.5361 49.0123C58.984 48.4615 58.6553 48.1576 58.6553 48.1576Z" fill="#333343"/>
<path d="M50.2675 45.944C50.2486 45.946 50.2295 45.946 50.2106 45.944C50.1801 45.937 50.1512 45.9241 50.1258 45.9058C50.1004 45.8875 50.0789 45.8643 50.0626 45.8375C50.0462 45.8108 50.0355 45.781 50.0309 45.75C50.0263 45.719 50.0279 45.6874 50.0357 45.657C50.1558 45.159 50.2464 44.8509 50.2464 44.8383C50.2539 44.8066 50.2677 44.7767 50.2871 44.7506C50.3064 44.7245 50.331 44.7026 50.3591 44.6863C50.3873 44.67 50.4184 44.6597 50.4507 44.6559C50.483 44.6521 50.5157 44.655 50.5468 44.6644C50.578 44.6738 50.6069 44.6894 50.6317 44.7104C50.6566 44.7314 50.6769 44.7573 50.6914 44.7864C50.7058 44.8156 50.7142 44.8474 50.716 44.8799C50.7177 44.9124 50.7128 44.9449 50.7015 44.9754C50.7015 44.9754 50.6109 45.2856 50.4908 45.7688C50.4773 45.8182 50.4483 45.8618 50.4081 45.8933C50.3678 45.9249 50.3186 45.9426 50.2675 45.944Z" fill="#F7604B"/>
<path d="M67.2755 90.1557C67.2137 90.1498 67.1522 90.1688 67.1043 90.2083C67.0565 90.2479 67.0264 90.3049 67.0205 90.3667V90.4765C67.187 90.4765 67.3471 90.4764 67.4988 90.4617V90.4026C67.5017 90.3402 67.4798 90.2793 67.438 90.233C67.3961 90.1868 67.3377 90.159 67.2755 90.1557Z" fill="#F7604B"/>
<path d="M61.7193 23.5239C61.7193 23.5239 64.1593 24.771 64.8799 27.3581C65.6005 29.9451 65.9334 35.4568 64.8799 37.3264C63.8263 39.196 61.7193 48.2527 60.1432 48.7802C58.5671 49.3077 45.8363 49.2022 44.8797 48.9701C43.9231 48.738 50.7163 33.6842 53.0614 28.8921C55.4066 24.1 61.7193 23.5239 61.7193 23.5239Z" fill="#FBF3FF"/>
<path d="M46.1903 44.3235L31.1334 36.9907C30.8569 36.8556 30.6453 36.6162 30.545 36.325C30.4446 36.0339 30.4638 35.7147 30.5982 35.4376L39.5215 17.0583C39.6564 16.7814 39.8954 16.5695 40.1862 16.469C40.477 16.3685 40.7957 16.3877 41.0723 16.5223L56.1293 23.855C56.2666 23.9215 56.3894 24.0145 56.4907 24.1286C56.592 24.2427 56.6699 24.3756 56.7198 24.5199C56.7697 24.6642 56.7907 24.8169 56.7815 24.9693C56.7724 25.1217 56.7334 25.2709 56.6666 25.4081L47.7411 43.7812C47.6749 43.9188 47.5823 44.042 47.4685 44.1438C47.3547 44.2455 47.222 44.3238 47.078 44.3742C46.9339 44.4245 46.7814 44.446 46.6291 44.4373C46.4768 44.4286 46.3277 44.3899 46.1903 44.3235Z" fill="#F36E73"/>
<path opacity="0.5" d="M56.1269 23.8551L55.284 23.4331C55.2949 23.6316 55.2558 23.8298 55.1703 24.0092L46.2469 42.3886C46.1124 42.6658 45.8735 42.8782 45.5827 42.9791C45.2919 43.08 44.973 43.0611 44.6961 42.9266L30.4819 36.0054C30.4945 36.2113 30.5614 36.4102 30.6758 36.5819C30.7902 36.7535 30.9479 36.8917 31.133 36.9824L46.1921 44.3151C46.4688 44.4497 46.7875 44.4689 47.0782 44.3684C47.369 44.2679 47.608 44.056 47.7429 43.7791L56.6663 25.3998C56.7983 25.1232 56.8157 24.8055 56.7146 24.516C56.6136 24.2266 56.4023 23.989 56.1269 23.8551Z" fill="#F8ADB0"/>
<path d="M56.6663 24.3953L40.3114 16.4337C40.14 16.4719 39.9795 16.5488 39.8422 16.6585C39.7049 16.7682 39.5944 16.9078 39.5191 17.0668L37.292 21.6521L54.0999 29.8226C54.1457 29.8452 54.1954 29.8585 54.2464 29.8617C54.2973 29.8649 54.3483 29.8579 54.3965 29.8413C54.4447 29.8246 54.4891 29.7985 54.5272 29.7645C54.5653 29.7305 54.5962 29.6893 54.6183 29.6432L56.6748 25.4082C56.7494 25.2495 56.7875 25.0761 56.786 24.9007C56.7846 24.7254 56.7436 24.5526 56.6663 24.3953Z" fill="#F8ADB0"/>
<path d="M54.2516 29.487L37.3383 21.2574C37.2925 21.2351 37.2515 21.204 37.2177 21.1659C37.184 21.1277 37.158 21.0833 37.1414 21.035C37.1247 20.9868 37.1178 20.9358 37.1208 20.8849C37.1239 20.834 37.1369 20.7842 37.1592 20.7384L39.4454 16.0327C39.4676 15.9869 39.4987 15.9458 39.5368 15.912C39.5749 15.8782 39.6193 15.8521 39.6674 15.8355C39.7156 15.8188 39.7665 15.8118 39.8173 15.8149C39.8682 15.818 39.9179 15.8311 39.9637 15.8534L56.877 24.0829C56.9228 24.1052 56.9638 24.1363 56.9975 24.1745C57.0313 24.2127 57.0573 24.2571 57.0739 24.3053C57.0906 24.3535 57.0975 24.4045 57.0945 24.4555C57.0914 24.5064 57.0784 24.5562 57.0561 24.602L54.7699 29.3077C54.7477 29.3535 54.7166 29.3945 54.6785 29.4284C54.6404 29.4622 54.596 29.4882 54.5479 29.5049C54.4997 29.5215 54.4488 29.5285 54.398 29.5255C54.3471 29.5224 54.2974 29.5093 54.2516 29.487Z" fill="#F36E73"/>
<path opacity="0.5" d="M56.8769 24.0827L55.6443 23.4813C55.6983 23.5388 55.7336 23.6113 55.7457 23.6892C55.7577 23.7672 55.7459 23.847 55.7117 23.9181L53.4256 28.6259C53.4033 28.6718 53.3722 28.7128 53.3341 28.7465C53.2959 28.7803 53.2515 28.8062 53.2033 28.8227C53.1551 28.8392 53.1041 28.8459 53.0533 28.8426C53.0025 28.8392 52.9528 28.8258 52.9072 28.8031L37.2266 21.1686C37.2586 21.2024 37.2965 21.2303 37.3382 21.2509L54.2515 29.4805C54.2973 29.5028 54.347 29.5159 54.3979 29.5189C54.4487 29.522 54.4997 29.515 54.5478 29.4984C54.5959 29.4817 54.6403 29.4557 54.6784 29.4219C54.7165 29.388 54.7476 29.347 54.7699 29.3011L57.056 24.5955C57.099 24.5035 57.1044 24.3984 57.0709 24.3025C57.0374 24.2067 56.9678 24.1278 56.8769 24.0827Z" fill="#F36E73"/>
<path d="M57.0835 24.5197C61.0153 23.2726 63.2824 25.0662 62.7599 30.5885C59.9723 39.0902 48.3877 42.4517 48.3877 42.4517L49.8036 39.5355C49.8036 39.5355 54.5888 39.0839 59.4771 33.8128C62.8484 30.1855 61.6979 26.5877 60.2757 25.8132C59.0978 25.1802 56.8538 25.0789 56.8538 25.0789L57.0835 24.5197Z" fill="#3E3D51"/>
<g style="mix-blend-mode:multiply">
<path d="M60.7522 45.813C59.6523 44.184 60.9144 36.6234 61.2979 32.4558C61.6814 28.2883 59.6228 26.6571 59.6228 26.6571C58.7379 25.7709 55.5541 25.8447 54.8398 27.7439C54.4184 28.8812 51.7024 39.4278 53.8811 45.8742L53.8959 45.9143C54.2384 46.8801 54.8905 47.7052 55.7503 48.261C56.6102 48.8167 57.6295 49.0719 58.6494 48.9867C59.1515 48.9639 59.6503 48.8932 60.139 48.7757C60.6089 48.6174 61.1251 47.708 61.6456 46.4545C61.3 46.3169 60.9933 46.0966 60.7522 45.813Z" fill="#B2DAFE"/>
</g>
<path d="M66.3843 21.6564C66.3843 21.6564 66.0113 22.1016 65.5878 22.7241C65.1497 23.3642 64.8561 24.0923 64.7277 24.8576C64.5992 25.6229 64.6389 26.407 64.844 27.1554C65.272 28.6304 65.5078 30.1546 65.5457 31.6901C65.5457 34.5641 61.7192 23.5302 61.7192 23.5302L63.801 19.4681L66.3843 21.6564Z" fill="#FFAF95"/>
<g style="mix-blend-mode:multiply" opacity="0.68">
<path d="M66.3842 21.6563L63.7925 19.4639L63.0171 20.9747C63.5301 22.0075 64.2205 22.9417 65.0567 23.7348C65.2002 23.3779 65.3817 23.0376 65.5982 22.7198C66.0112 22.1016 66.3842 21.6563 66.3842 21.6563Z" fill="#FF7685"/>
</g>
<path d="M60.1829 12.5088C60.1829 12.5088 59.9975 10.7131 58.8976 7.40646C57.7977 4.09986 53.8407 1.70906 50.8381 3.6082C47.8356 5.50733 46.1394 3.60818 43.2717 1.30179C40.404 -1.0046 36.6935 -0.0149376 34.5906 2.46237C32.4878 4.93969 28.4296 4.88695 29.2198 10.2362C30.0099 15.5854 36.2383 18.835 39.8751 16.1446C43.5119 13.4541 44.1545 14.5113 46.9 16.9401C49.6455 19.3689 56.3544 15.2393 57.7977 13.95C59.241 12.6607 60.1829 12.5088 60.1829 12.5088Z" fill="#333343"/>
<path d="M98.9001 87.2143C98.7712 87.2146 98.6446 87.1804 98.5334 87.1151C98.4222 87.0497 98.3306 86.9557 98.268 86.8429L78.9379 51.6034C78.7527 51.2652 78.6556 50.8856 78.6556 50.4998V48.2146C78.6582 48.0627 78.6198 47.9129 78.5445 47.7811C78.4691 47.6492 78.3597 47.5401 78.2277 47.4654C78.0956 47.3906 77.9459 47.3529 77.7942 47.3563C77.6426 47.3596 77.4947 47.4039 77.366 47.4845L73.9948 49.506C73.9139 49.5595 73.823 49.5962 73.7276 49.6136C73.6323 49.6311 73.5343 49.6291 73.4397 49.6076C73.3452 49.5862 73.2559 49.5458 73.1773 49.4889C73.0988 49.432 73.0325 49.3597 72.9826 49.2765C72.9326 49.1933 72.9 49.1007 72.8867 49.0046C72.8734 48.9084 72.8796 48.8105 72.9051 48.7168C72.9306 48.6231 72.9747 48.5355 73.0349 48.4594C73.0951 48.3832 73.17 48.32 73.2552 48.2737L76.6265 46.2521C76.9733 46.0438 77.3691 45.9314 77.7735 45.9263C78.1779 45.9212 78.5764 46.0237 78.9284 46.2232C79.2803 46.4227 79.5731 46.7122 79.7769 47.062C79.9807 47.4118 80.0882 47.8096 80.0884 48.2146V50.4998C80.0893 50.6436 80.1255 50.7849 80.1937 50.9113L99.5238 86.1508C99.582 86.2601 99.611 86.3826 99.6079 86.5065C99.6048 86.6304 99.5697 86.7513 99.506 86.8575C99.4424 86.9637 99.3523 87.0517 99.2447 87.1127C99.137 87.1737 99.0154 87.2058 98.8917 87.2058L98.9001 87.2143Z" fill="#8282A8"/>
<path d="M96.7637 86.4969C96.7637 86.9201 96.889 87.3337 97.1237 87.6856C97.3585 88.0375 97.6922 88.3117 98.0826 88.4737C98.473 88.6356 98.9026 88.678 99.3171 88.5954C99.7315 88.5129 100.112 88.3091 100.411 88.0099C100.71 87.7106 100.913 87.3294 100.996 86.9143C101.078 86.4992 101.036 86.069 100.874 85.678C100.712 85.2871 100.439 84.9529 100.087 84.7178C99.7359 84.4827 99.3228 84.3572 98.9002 84.3572C98.3336 84.3572 97.7901 84.5826 97.3895 84.9839C96.9888 85.3851 96.7637 85.9294 96.7637 86.4969Z" fill="#FBF3FF"/>
<path d="M76.8561 46.5518C75.9606 45.655 73.5796 46.6003 72.5029 46.9612C71.9214 47.1553 62.2669 45.847 61.1649 44.218C60.0629 42.5889 61.245 35.022 61.7127 30.8608C62.1594 26.8789 61.1712 25.4736 59.888 24.9967C58.5416 24.4945 55.9689 24.2497 55.2525 26.1509C54.8311 27.2862 52.1172 37.8327 54.2938 44.2792C57.0329 52.4011 72.9391 48.6873 73.2446 48.6873C73.6028 48.6873 73.961 49.5018 74.3213 49.5018C74.6816 49.5018 76.2703 48.8687 76.4494 48.6873C76.6285 48.5058 77.76 47.4507 76.8561 46.5518Z" fill="#FFAF95"/>
<path d="M69.4164 12.6672C69.4164 12.6672 70.6806 13.3657 70.944 16.6934C71.2074 20.0211 70.5458 23.4459 69.1846 23.7434C67.8235 24.0409 64.467 22.0553 63.3713 20.4178C62.2756 18.7803 64.0371 13.467 65.8302 12.6672C67.6233 11.8675 69.4164 12.6672 69.4164 12.6672Z" fill="#FFAF95"/>
<path d="M60.0165 10.0736C59.5951 10.4956 58.8218 12.3947 58.8218 14.5977C58.8218 16.8007 61.7443 20.8501 62.5091 21.1835C63.274 21.5169 66.384 19.4637 67.191 14.5977C67.3806 13.4477 69.652 12.8632 69.652 12.8632C69.652 12.8632 69.9133 10.7045 67.8884 9.94065C65.8636 9.17678 65.1977 10.6391 63.5711 10.1728C61.9444 9.70642 60.7982 9.29284 60.0165 10.0736Z" fill="#333343"/>
<path d="M66.3843 17.687C66.3843 17.687 66.595 16.2352 65.7964 16.2352C64.9978 16.2352 64.0497 17.8495 64.5659 18.5437C65.0821 19.238 66.0134 18.7822 66.0134 18.7822L66.3843 17.687Z" fill="#FFAF95"/>
<g clip-path="url(#clip0_3807_23953)">
<path d="M103.175 15.5592C100.091 15.5592 97.5815 18.0683 97.5815 21.152C97.5815 24.236 100.091 26.7451 103.175 26.7451C106.259 26.7451 108.767 24.236 108.767 21.152C108.767 18.0683 106.258 15.5592 103.175 15.5592Z" fill="#ED1C24"/>
<path d="M103.225 8.82972L103.173 8.82947C96.3794 8.82947 90.8521 14.3573 90.8521 21.1521C90.8521 24.8772 92.7561 27.7827 94.8776 30.6761L103.157 41.9681C103.157 41.9681 110.982 31.3438 111.472 30.6763C113.593 27.783 115.497 24.8775 115.497 21.1523C115.497 14.3742 109.997 8.85652 103.225 8.82972ZM103.175 28.6863C99.0204 28.6863 95.6406 25.3065 95.6406 21.1521C95.6406 16.9978 99.0204 13.618 103.175 13.618C107.329 13.618 110.709 16.9978 110.709 21.1521C110.709 25.3065 107.329 28.6863 103.175 28.6863Z" fill="#ED1C24"/>
</g>
<defs>
<clipPath id="clip0_3807_23953">
<rect width="33.1387" height="33.1387" fill="white" transform="translate(86.5801 8.82947)"/>
</clipPath>
</defs>
</svg>
